<svg width="389" height="350" viewBox="0 0 389 350" fill="none" xmlns="http://www.w3.org/2000/svg">
<path d="M86.112 93.392C77.088 93.392 70.272 95.216 65.664 98.864C61.248 102.512 59.04 108.464 59.04 116.72C59.04 120.752 59.424 127.376 60.192 136.592C60.96 145.808 61.344 152.24 61.344 155.888C61.344 164.528 59.616 171.536 56.16 176.912C52.704 182.096 47.616 186.32 40.896 189.584C47.616 192.656 52.704 196.88 56.16 202.256C59.616 207.632 61.344 214.64 61.344 223.28C61.344 226.928 60.96 233.36 60.192 242.576C59.424 251.792 59.04 258.416 59.04 262.448C59.04 270.704 61.248 276.656 65.664 280.304C70.272 283.952 77.088 285.776 86.112 285.776H93.888V317.168H83.232C65.568 317.168 52.416 313.04 43.776 304.784C35.328 296.528 31.104 285.296 31.104 271.088C31.104 267.44 31.488 261.2 32.256 252.368C33.024 243.152 33.408 236.336 33.408 231.92C33.408 221.168 31.584 213.392 27.936 208.592C24.288 203.6 17.856 201.104 8.64 201.104V178.064C17.856 178.064 24.288 175.664 27.936 170.864C31.584 165.872 33.408 158 33.408 147.248C33.408 142.832 33.024 136.016 32.256 126.8C31.488 117.968 31.104 111.728 31.104 108.08C31.104 93.872 35.328 82.64 43.776 74.384C52.416 66.128 65.568 62 83.232 62H93.888V93.392H86.112ZM355.311 147.248C355.311 158 357.135 165.872 360.783 170.864C364.431 175.664 370.863 178.064 380.079 178.064V201.104C370.863 201.104 364.431 203.6 360.783 208.592C357.135 213.392 355.311 221.168 355.311 231.92C355.311 236.336 355.695 243.152 356.463 252.368C357.231 261.2 357.615 267.44 357.615 271.088C357.615 285.296 353.295 296.528 344.655 304.784C336.207 313.04 323.151 317.168 305.487 317.168H294.831V285.776H302.607C311.631 285.776 318.351 283.952 322.767 280.304C327.375 276.656 329.679 270.704 329.679 262.448C329.679 258.416 329.295 251.792 328.527 242.576C327.759 233.36 327.375 226.928 327.375 223.28C327.375 206.96 334.191 195.728 347.823 189.584C334.191 183.44 327.375 172.208 327.375 155.888C327.375 152.24 327.759 145.808 328.527 136.592C329.295 127.376 329.679 120.752 329.679 116.72C329.679 108.464 327.375 102.512 322.767 98.864C318.351 95.216 311.631 93.392 302.607 93.392H294.831V62H305.487C323.151 62 336.207 66.128 344.655 74.384C353.295 82.64 357.615 93.872 357.615 108.08C357.615 111.728 357.231 117.968 356.463 126.8C355.695 136.016 355.311 142.832 355.311 147.248Z" fill="black"/>
<g clip-path="url(#clip0)">
<path d="M308.446 198.9L276.696 187.789C264.026 183.353 250.101 184.242 238.097 190.251C226.094 196.261 217.037 206.876 212.995 219.677L204.688 245.985L196.509 252.119V197.178C196.499 189.855 200.161 183.014 206.259 178.961L202.023 172.61C193.801 178.079 188.865 187.302 188.876 197.178V204.738L183.941 199.803L178.545 205.2L188.876 215.532V299.376L181.243 295.559V287.708C181.241 268.509 172.011 250.479 156.436 239.252C140.859 228.028 120.837 224.973 102.623 231.047L84.6257 237.046C83.0585 237.562 82 239.023 82 240.672C82 242.322 83.0585 243.783 84.6257 244.299L88.7124 245.661C108.302 252.174 126.581 262.115 142.696 275.019L175.041 300.895C175.259 301.048 175.496 301.176 175.744 301.277L175.72 301.327L188.876 307.911V317.002H196.509V261.66L210.247 251.354L210.206 251.302C210.362 251.211 210.513 251.11 210.657 251C234.824 226.91 266.299 211.514 300.151 207.226L307.66 206.289C309.417 206.067 310.79 204.666 310.978 202.904C311.167 201.143 310.118 199.485 308.446 198.9V198.9Z" fill="#3D7606"/>
<path d="M228.829 120.324L227.041 91.5819C226.927 89.7742 225.559 88.2945 223.764 88.0391C221.975 87.8006 220.259 88.8386 219.641 90.5364L207.297 125.084C202.681 137.989 200.322 151.594 200.325 165.301V175.785C200.325 177.328 201.255 178.72 202.681 179.311C204.106 179.9 205.748 179.574 206.84 178.484C222.169 163.148 230.179 141.968 228.829 120.324Z" fill="#5FA819"/>
<path d="M139.005 138.595L113.752 130.2C112.448 129.763 111.009 130.063 109.986 130.984C108.965 131.907 108.518 133.306 108.818 134.65L113.016 153.588C119.738 184.488 147.159 206.473 178.781 206.319H181.243C183.351 206.319 185.059 204.61 185.059 202.502C185.084 173.5 166.523 147.747 139.005 138.595Z" fill="#5FA819"/>
<path d="M157.77 189.526C143.145 180.524 131.157 167.822 123.014 152.703L110.978 130.339C109.313 131.057 108.402 132.864 108.818 134.629L113.016 153.567C119.73 184.477 147.154 206.471 178.781 206.319H181.243C182.111 206.304 182.946 205.989 183.608 205.426L157.77 189.526Z" fill="#589C17"/>
<path d="M239.321 216.622C231.28 222.364 224.924 230.154 220.911 239.183L219.147 243.153C242.057 223.514 270.218 211.02 300.151 207.219L307.423 206.319H271.494C259.957 206.315 248.709 209.919 239.321 216.622V216.622Z" fill="#589C17"/>
<path d="M179.426 303.185L179.35 302.766C171.76 261.014 133.766 231.807 91.4685 235.21L89.6926 235.352L84.6257 237.042C83.0585 237.558 82 239.019 82 240.669C82 242.318 83.0585 243.779 84.6257 244.293L88.7124 245.657C108.302 252.173 126.581 262.113 142.696 275.019L175.041 300.895C175.259 301.048 175.496 301.176 175.744 301.277L175.72 301.327L179.426 303.185Z" fill="#589C17"/>
</g>
<defs>
<clipPath id="clip0">
<rect x="82" y="88" width="229" height="229" fill="white"/>
</clipPath>
</defs>
</svg>
