<svg width="773" height="151" viewBox="0 0 773 151" fill="none" xmlns="http://www.w3.org/2000/svg">
<path d="M183.96 98.344C177.432 98.344 171.64 96.904 166.584 94.024C161.528 91.144 157.592 87.048 154.776 81.736C151.96 76.424 150.552 70.28 150.552 63.304C150.552 56.392 152.024 50.312 154.968 45.064C157.976 39.752 162.136 35.656 167.448 32.776C172.76 29.896 178.776 28.456 185.496 28.456C188.888 28.456 192.216 28.808 195.48 29.512C198.808 30.216 201.72 31.144 204.216 32.296L203.16 41.896C197.272 39.464 191.448 38.248 185.688 38.248C177.88 38.248 171.992 40.552 168.024 45.16C164.056 49.768 162.072 55.816 162.072 63.304C162.072 70.984 164.056 77.128 168.024 81.736C172.056 86.28 177.912 88.552 185.592 88.552C189.432 88.552 192.888 88.072 195.96 87.112V72.328H185.976V63.304H206.424V93.256C203.8 94.792 200.504 96.04 196.536 97C192.632 97.896 188.44 98.344 183.96 98.344ZM216.416 49.576H225.248L225.92 56.2C230.144 51.144 234.56 48.616 239.168 48.616C239.872 48.616 240.608 48.68 241.376 48.808L240.512 59.272C239.488 59.016 238.336 58.888 237.056 58.888C234.88 58.888 232.832 59.4 230.912 60.424C228.992 61.448 227.616 62.632 226.784 63.976V97H216.416V49.576ZM267.347 97.96C262.419 97.96 258.131 96.872 254.483 94.696C250.899 92.456 248.147 89.48 246.227 85.768C244.371 81.992 243.443 77.832 243.443 73.288C243.443 68.744 244.371 64.616 246.227 60.904C248.147 57.128 250.899 54.152 254.483 51.976C258.131 49.736 262.419 48.616 267.347 48.616C272.211 48.616 276.435 49.736 280.019 51.976C283.667 54.152 286.451 57.128 288.371 60.904C290.291 64.616 291.25 68.744 291.25 73.288C291.25 77.832 290.291 81.992 288.371 85.768C286.451 89.48 283.667 92.456 280.019 94.696C276.435 96.872 272.211 97.96 267.347 97.96ZM267.347 89.416C271.699 89.416 275.059 87.976 277.427 85.096C279.795 82.216 280.979 78.28 280.979 73.288C280.979 68.296 279.795 64.36 277.427 61.48C275.059 58.6 271.699 57.16 267.347 57.16C262.995 57.16 259.635 58.6 257.267 61.48C254.899 64.36 253.715 68.296 253.715 73.288C253.715 78.28 254.899 82.216 257.267 85.096C259.635 87.976 262.995 89.416 267.347 89.416ZM294.681 49.576H305.529L314.169 85.384L323.769 50.824H333.177L342.681 85.384L351.417 49.576H362.265L348.153 97H338.265L328.473 63.688L318.585 97H308.793L294.681 49.576ZM368.948 29.8H378.932V40.36H368.948V29.8ZM368.948 49.576H378.932V97H368.948V49.576ZM414.032 48.712C420.368 48.712 425.072 50.664 428.144 54.568C431.216 58.408 432.752 63.784 432.752 70.696V97H422.768V71.08C422.768 66.28 421.904 62.792 420.176 60.616C418.448 58.376 415.6 57.256 411.632 57.256C409.2 57.256 407.024 57.704 405.104 58.6C403.184 59.496 401.616 60.808 400.4 62.536V97H390.416V49.576H398.96L399.536 53.896C403.824 50.44 408.656 48.712 414.032 48.712ZM462.768 121.096C456.048 121.096 450.64 119.848 446.544 117.352C442.448 114.92 440.4 111.528 440.4 107.176C440.4 102.44 443.056 98.728 448.368 96.04C445.424 94.44 443.952 92.328 443.952 89.704C443.952 86.696 445.712 84.424 449.232 82.888C446.672 81.288 444.72 79.144 443.376 76.456C442.032 73.704 441.36 70.632 441.36 67.24C441.36 63.784 442.128 60.648 443.664 57.832C445.2 55.016 447.44 52.776 450.384 51.112C453.328 49.448 456.816 48.616 460.848 48.616C465.072 48.616 468.816 49.736 472.08 51.976C475.152 50.312 478.864 49.48 483.216 49.48H484.944L483.984 55.912H480.912C479.376 55.912 477.968 56.072 476.688 56.392C479.056 59.464 480.24 63.08 480.24 67.24C480.24 70.76 479.472 73.96 477.936 76.84C476.4 79.72 474.16 81.992 471.216 83.656C468.272 85.32 464.816 86.152 460.848 86.152C458.864 86.152 456.912 85.896 454.992 85.384C453.84 85.768 453.264 86.472 453.264 87.496C453.264 88.264 453.712 88.904 454.608 89.416C455.568 89.928 457.072 90.312 459.12 90.568L469.872 92.2C475.12 92.968 479.12 94.472 481.872 96.712C484.624 98.952 486 102.024 486 105.928C486 110.728 483.92 114.44 479.76 117.064C475.664 119.752 470 121.096 462.768 121.096ZM460.848 78.472C464.048 78.472 466.512 77.48 468.24 75.496C470.032 73.448 470.928 70.728 470.928 67.336C470.928 64.008 470.032 61.352 468.24 59.368C466.512 57.32 464.048 56.296 460.848 56.296C457.584 56.296 455.056 57.32 453.264 59.368C451.536 61.352 450.672 64.008 450.672 67.336C450.672 70.728 451.536 73.448 453.264 75.496C455.056 77.48 457.584 78.472 460.848 78.472ZM463.344 112.84C472.112 112.84 476.496 110.696 476.496 106.408C476.496 104.68 475.792 103.336 474.384 102.376C472.976 101.48 470.736 100.744 467.664 100.168L455.472 98.248C451.376 99.976 449.328 102.376 449.328 105.448C449.328 107.944 450.544 109.8 452.976 111.016C455.472 112.232 458.928 112.84 463.344 112.84Z" fill="black"/>
<path d="M524.728 98.344C518.136 98.344 512.248 96.904 507.064 94.024C501.88 91.144 497.816 87.08 494.872 81.832C491.992 76.52 490.552 70.376 490.552 63.4C490.552 56.424 492.024 50.312 494.968 45.064C497.976 39.752 502.072 35.656 507.256 32.776C512.504 29.896 518.456 28.456 525.112 28.456C528.44 28.456 531.608 28.808 534.616 29.512C537.688 30.216 540.408 31.176 542.776 32.392L541.72 42.184C535.896 39.56 530.328 38.248 525.016 38.248C520.088 38.248 515.896 39.336 512.44 41.512C509.048 43.688 506.456 46.664 504.664 50.44C502.936 54.216 502.072 58.536 502.072 63.4C502.072 68.264 502.936 72.584 504.664 76.36C506.392 80.136 508.952 83.112 512.344 85.288C515.736 87.464 519.864 88.552 524.728 88.552C527.864 88.552 530.776 88.232 533.464 87.592C536.152 86.888 538.904 85.896 541.72 84.616L542.776 94.504C537.08 97.064 531.064 98.344 524.728 98.344ZM571.534 97.96C566.606 97.96 562.318 96.872 558.67 94.696C555.086 92.456 552.334 89.48 550.414 85.768C548.558 81.992 547.63 77.832 547.63 73.288C547.63 68.744 548.558 64.616 550.414 60.904C552.334 57.128 555.086 54.152 558.67 51.976C562.318 49.736 566.606 48.616 571.534 48.616C576.398 48.616 580.622 49.736 584.206 51.976C587.854 54.152 590.638 57.128 592.558 60.904C594.478 64.616 595.438 68.744 595.438 73.288C595.438 77.832 594.478 81.992 592.558 85.768C590.638 89.48 587.854 92.456 584.206 94.696C580.622 96.872 576.398 97.96 571.534 97.96ZM571.534 89.416C575.886 89.416 579.246 87.976 581.614 85.096C583.982 82.216 585.166 78.28 585.166 73.288C585.166 68.296 583.982 64.36 581.614 61.48C579.246 58.6 575.886 57.16 571.534 57.16C567.182 57.16 563.822 58.6 561.454 61.48C559.086 64.36 557.902 68.296 557.902 73.288C557.902 78.28 559.086 82.216 561.454 85.096C563.822 87.976 567.182 89.416 571.534 89.416ZM646.569 25V97H637.353L636.777 92.488C633.257 96.136 628.649 97.96 622.953 97.96C618.729 97.96 614.953 96.872 611.625 94.696C608.297 92.52 605.705 89.544 603.849 85.768C602.057 81.992 601.161 77.864 601.161 73.384C601.161 68.968 602.025 64.872 603.753 61.096C605.545 57.32 608.073 54.312 611.337 52.072C614.665 49.832 618.537 48.712 622.953 48.712C628.585 48.712 633.129 50.408 636.585 53.8V25H646.569ZM624.585 89.416C628.297 89.416 631.337 88.04 633.705 85.288C636.137 82.472 637.353 78.504 637.353 73.384C637.353 68.456 636.137 64.552 633.705 61.672C631.273 58.728 628.233 57.256 624.585 57.256C620.553 57.256 617.353 58.76 614.985 61.768C612.617 64.712 611.433 68.584 611.433 73.384C611.433 77.992 612.617 81.832 614.985 84.904C617.353 87.912 620.553 89.416 624.585 89.416ZM680.7 97.96C675.26 97.96 670.588 96.84 666.684 94.6C662.844 92.36 659.932 89.352 657.948 85.576C656.028 81.8 655.068 77.576 655.068 72.904C655.068 68.488 655.964 64.456 657.756 60.808C659.612 57.096 662.268 54.152 665.724 51.976C669.244 49.8 673.404 48.712 678.204 48.712C684.476 48.712 689.468 50.568 693.18 54.28C696.892 57.928 698.748 62.824 698.748 68.968C698.748 70.632 698.556 72.424 698.172 74.344H665.34C665.98 79.656 667.74 83.496 670.62 85.864C673.564 88.232 677.276 89.416 681.756 89.416C686.812 89.416 691.452 88.328 695.676 86.152L696.636 94.312C691.516 96.744 686.204 97.96 680.7 97.96ZM688.476 67.528C688.476 64.52 687.612 62.056 685.884 60.136C684.156 58.216 681.564 57.256 678.108 57.256C671.644 57.256 667.58 60.68 665.916 67.528H688.476ZM707.166 49.576H715.998L716.67 56.2C720.894 51.144 725.31 48.616 729.918 48.616C730.622 48.616 731.358 48.68 732.126 48.808L731.262 59.272C730.238 59.016 729.086 58.888 727.806 58.888C725.63 58.888 723.582 59.4 721.662 60.424C719.742 61.448 718.366 62.632 717.534 63.976V97H707.166V49.576ZM751.544 97.96C745.528 97.96 740.152 96.68 735.416 94.12L736.472 84.904C738.328 86.248 740.504 87.4 743 88.36C745.496 89.256 748.216 89.704 751.16 89.704C753.912 89.704 756.024 89.256 757.496 88.36C758.968 87.464 759.704 86.12 759.704 84.328C759.704 82.344 758.904 80.84 757.304 79.816C755.768 78.728 753.496 77.704 750.488 76.744C747.416 75.72 744.888 74.728 742.904 73.768C740.92 72.744 739.288 71.336 738.008 69.544C736.728 67.752 736.088 65.448 736.088 62.632C736.088 58.6 737.592 55.272 740.6 52.648C743.672 49.96 748.088 48.616 753.848 48.616C758.84 48.616 763.384 49.736 767.48 51.976L766.424 60.808C764.44 59.336 762.456 58.216 760.472 57.448C758.552 56.616 756.408 56.2 754.04 56.2C751.544 56.2 749.592 56.68 748.184 57.64C746.776 58.6 746.072 60.008 746.072 61.864C746.072 63.208 746.424 64.296 747.128 65.128C747.832 65.96 748.856 66.664 750.2 67.24C751.544 67.816 753.656 68.616 756.536 69.64C760.632 71.048 763.864 72.776 766.232 74.824C768.664 76.872 769.88 79.88 769.88 83.848C769.88 87.944 768.376 91.336 765.368 94.024C762.424 96.648 757.816 97.96 751.544 97.96Z" fill="#589C17"/>
<path d="M372.68 134.832C373.736 135.12 374.536 135.632 375.08 136.368C375.64 137.104 375.92 138.048 375.92 139.2C375.92 140.688 375.44 141.864 374.48 142.728C373.52 143.576 372.2 144 370.52 144H363.896V127.2H369.632C371.2 127.2 372.392 127.544 373.208 128.232C374.04 128.92 374.456 129.936 374.456 131.28C374.456 132.096 374.304 132.808 374 133.416C373.696 134.024 373.256 134.496 372.68 134.832ZM366.512 134.016H369.272C370.104 134.016 370.736 133.848 371.168 133.512C371.6 133.176 371.816 132.6 371.816 131.784C371.816 130.968 371.6 130.392 371.168 130.056C370.736 129.704 370.104 129.528 369.272 129.528H366.512V134.016ZM370.208 141.648C371.136 141.648 371.856 141.44 372.368 141.024C372.88 140.592 373.136 139.928 373.136 139.032C373.136 137.256 372.16 136.368 370.208 136.368H366.512V141.648H370.208ZM383.753 144.24C382.393 144.24 381.225 143.96 380.249 143.4C379.289 142.84 378.561 142.088 378.065 141.144C377.585 140.2 377.345 139.144 377.345 137.976C377.345 136.872 377.569 135.864 378.017 134.952C378.481 134.024 379.145 133.288 380.009 132.744C380.889 132.2 381.929 131.928 383.129 131.928C384.697 131.928 385.945 132.392 386.873 133.32C387.801 134.232 388.265 135.456 388.265 136.992C388.265 137.408 388.217 137.856 388.121 138.336H379.913C380.073 139.664 380.513 140.624 381.233 141.216C381.969 141.808 382.897 142.104 384.017 142.104C385.281 142.104 386.441 141.832 387.497 141.288L387.737 143.328C386.457 143.936 385.129 144.24 383.753 144.24ZM385.697 136.632C385.697 135.88 385.481 135.264 385.049 134.784C384.617 134.304 383.969 134.064 383.105 134.064C381.489 134.064 380.473 134.92 380.057 136.632H385.697ZM395.842 144.24C394.53 144.24 393.41 143.976 392.482 143.448C391.554 142.904 390.85 142.168 390.37 141.24C389.906 140.312 389.674 139.272 389.674 138.12C389.674 136.936 389.906 135.88 390.37 134.952C390.834 134.008 391.538 133.264 392.482 132.72C393.426 132.176 394.586 131.904 395.962 131.904C397.194 131.904 398.266 132.144 399.178 132.624L398.89 134.736C397.994 134.288 397.05 134.064 396.058 134.064C394.842 134.064 393.898 134.424 393.226 135.144C392.57 135.848 392.242 136.824 392.242 138.072C392.242 139.288 392.57 140.264 393.226 141C393.898 141.736 394.834 142.104 396.034 142.104C397.042 142.104 398.002 141.856 398.914 141.36L399.202 143.424C398.818 143.664 398.322 143.856 397.714 144C397.106 144.16 396.482 144.24 395.842 144.24ZM403.932 144.24C402.892 144.24 402.036 143.92 401.364 143.28C400.708 142.64 400.38 141.8 400.38 140.76C400.38 139.72 400.74 138.888 401.46 138.264C402.196 137.64 403.084 137.2 404.124 136.944C405.164 136.672 406.22 136.528 407.292 136.512C407.276 135.6 407.076 134.976 406.692 134.64C406.324 134.288 405.724 134.112 404.892 134.112C404.38 134.112 403.868 134.192 403.356 134.352C402.86 134.496 402.308 134.752 401.7 135.12L401.412 133.08C402.004 132.712 402.652 132.432 403.356 132.24C404.076 132.032 404.812 131.928 405.564 131.928C407.036 131.928 408.108 132.328 408.78 133.128C409.452 133.928 409.788 135.288 409.788 137.208V139.968C409.788 140.592 409.812 141.056 409.86 141.36C409.924 141.664 410.036 141.88 410.196 142.008C410.372 142.136 410.644 142.2 411.012 142.2H411.3L411.012 144.24H410.46C409.628 144.24 408.996 144.112 408.564 143.856C408.148 143.6 407.812 143.2 407.556 142.656C407.124 143.152 406.596 143.544 405.972 143.832C405.348 144.104 404.668 144.24 403.932 144.24ZM404.7 142.272C405.164 142.272 405.628 142.16 406.092 141.936C406.572 141.712 406.972 141.4 407.292 141V138.216C404.412 138.312 402.972 139.12 402.972 140.64C402.972 141.728 403.548 142.272 404.7 142.272ZM422.924 132.144V144H420.644L420.5 142.968C419.732 143.816 418.724 144.24 417.476 144.24C415.908 144.24 414.74 143.776 413.972 142.848C413.204 141.92 412.82 140.576 412.82 138.816V132.144H415.316V138.48C415.316 139.696 415.516 140.6 415.916 141.192C416.332 141.784 416.996 142.08 417.908 142.08C418.436 142.08 418.916 141.984 419.348 141.792C419.78 141.584 420.14 141.288 420.428 140.904V132.144H422.924ZM429.167 144.24C427.663 144.24 426.319 143.92 425.135 143.28L425.399 140.976C425.863 141.312 426.407 141.6 427.031 141.84C427.655 142.064 428.335 142.176 429.071 142.176C429.759 142.176 430.287 142.064 430.655 141.84C431.023 141.616 431.207 141.28 431.207 140.832C431.207 140.336 431.007 139.96 430.607 139.704C430.223 139.432 429.655 139.176 428.903 138.936C428.135 138.68 427.503 138.432 427.007 138.192C426.511 137.936 426.103 137.584 425.783 137.136C425.463 136.688 425.303 136.112 425.303 135.408C425.303 134.4 425.679 133.568 426.431 132.912C427.199 132.24 428.303 131.904 429.743 131.904C430.991 131.904 432.127 132.184 433.151 132.744L432.887 134.952C432.391 134.584 431.895 134.304 431.399 134.112C430.919 133.904 430.383 133.8 429.791 133.8C429.167 133.8 428.679 133.92 428.327 134.16C427.975 134.4 427.799 134.752 427.799 135.216C427.799 135.552 427.887 135.824 428.063 136.032C428.239 136.24 428.495 136.416 428.831 136.56C429.167 136.704 429.695 136.904 430.415 137.16C431.439 137.512 432.247 137.944 432.839 138.456C433.447 138.968 433.751 139.72 433.751 140.712C433.751 141.736 433.375 142.584 432.623 143.256C431.887 143.912 430.735 144.24 429.167 144.24ZM441.526 144.24C440.166 144.24 438.998 143.96 438.022 143.4C437.062 142.84 436.334 142.088 435.838 141.144C435.358 140.2 435.118 139.144 435.118 137.976C435.118 136.872 435.342 135.864 435.79 134.952C436.254 134.024 436.918 133.288 437.782 132.744C438.662 132.2 439.702 131.928 440.902 131.928C442.47 131.928 443.718 132.392 444.646 133.32C445.574 134.232 446.038 135.456 446.038 136.992C446.038 137.408 445.99 137.856 445.894 138.336H437.686C437.846 139.664 438.286 140.624 439.006 141.216C439.742 141.808 440.67 142.104 441.79 142.104C443.054 142.104 444.214 141.832 445.27 141.288L445.51 143.328C444.23 143.936 442.902 144.24 441.526 144.24ZM443.47 136.632C443.47 135.88 443.254 135.264 442.822 134.784C442.39 134.304 441.742 134.064 440.878 134.064C439.262 134.064 438.246 134.92 437.83 136.632H443.47ZM458.79 144.24C457.558 144.24 456.486 143.968 455.574 143.424C454.678 142.864 453.99 142.12 453.51 141.192C453.046 140.248 452.814 139.208 452.814 138.072C452.814 136.936 453.046 135.904 453.51 134.976C453.99 134.032 454.678 133.288 455.574 132.744C456.486 132.184 457.558 131.904 458.79 131.904C460.006 131.904 461.062 132.184 461.958 132.744C462.87 133.288 463.566 134.032 464.046 134.976C464.526 135.904 464.766 136.936 464.766 138.072C464.766 139.208 464.526 140.248 464.046 141.192C463.566 142.12 462.87 142.864 461.958 143.424C461.062 143.968 460.006 144.24 458.79 144.24ZM458.79 142.104C459.878 142.104 460.718 141.744 461.31 141.024C461.902 140.304 462.198 139.32 462.198 138.072C462.198 136.824 461.902 135.84 461.31 135.12C460.718 134.4 459.878 134.04 458.79 134.04C457.702 134.04 456.862 134.4 456.27 135.12C455.678 135.84 455.382 136.824 455.382 138.072C455.382 139.32 455.678 140.304 456.27 141.024C456.862 141.744 457.702 142.104 458.79 142.104ZM476.901 132.144V144H474.621L474.477 142.968C473.709 143.816 472.701 144.24 471.453 144.24C469.885 144.24 468.717 143.776 467.949 142.848C467.181 141.92 466.797 140.576 466.797 138.816V132.144H469.293V138.48C469.293 139.696 469.493 140.6 469.893 141.192C470.309 141.784 470.973 142.08 471.885 142.08C472.413 142.08 472.893 141.984 473.325 141.792C473.757 141.584 474.117 141.288 474.405 140.904V132.144H476.901ZM479.784 132.144H481.992L482.16 133.8C483.216 132.536 484.32 131.904 485.472 131.904C485.648 131.904 485.832 131.92 486.024 131.952L485.808 134.568C485.552 134.504 485.264 134.472 484.944 134.472C484.4 134.472 483.888 134.6 483.408 134.856C482.928 135.112 482.584 135.408 482.376 135.744V144H479.784V132.144ZM492.885 126H495.381V137.28L499.461 132.144H502.389L497.853 137.736L502.509 144H499.557L495.381 138.288V144H492.885V126ZM509.946 131.928C511.53 131.928 512.706 132.416 513.474 133.392C514.242 134.352 514.626 135.696 514.626 137.424V144H512.13V137.52C512.13 136.32 511.914 135.448 511.482 134.904C511.05 134.344 510.338 134.064 509.346 134.064C508.738 134.064 508.194 134.176 507.714 134.4C507.234 134.624 506.842 134.952 506.538 135.384V144H504.042V132.144H506.178L506.322 133.224C507.394 132.36 508.602 131.928 509.946 131.928ZM522.634 144.24C521.402 144.24 520.33 143.968 519.418 143.424C518.522 142.864 517.834 142.12 517.354 141.192C516.89 140.248 516.658 139.208 516.658 138.072C516.658 136.936 516.89 135.904 517.354 134.976C517.834 134.032 518.522 133.288 519.418 132.744C520.33 132.184 521.402 131.904 522.634 131.904C523.85 131.904 524.906 132.184 525.802 132.744C526.714 133.288 527.41 134.032 527.89 134.976C528.37 135.904 528.609 136.936 528.609 138.072C528.609 139.208 528.37 140.248 527.89 141.192C527.41 142.12 526.714 142.864 525.802 143.424C524.906 143.968 523.85 144.24 522.634 144.24ZM522.634 142.104C523.722 142.104 524.562 141.744 525.154 141.024C525.746 140.304 526.042 139.32 526.042 138.072C526.042 136.824 525.746 135.84 525.154 135.12C524.562 134.4 523.722 134.04 522.634 134.04C521.546 134.04 520.706 134.4 520.114 135.12C519.522 135.84 519.226 136.824 519.226 138.072C519.226 139.32 519.522 140.304 520.114 141.024C520.706 141.744 521.546 142.104 522.634 142.104ZM529.467 132.144H532.179L534.339 141.096L536.739 132.456H539.091L541.467 141.096L543.651 132.144H546.363L542.835 144H540.363L537.915 135.672L535.443 144H532.995L529.467 132.144ZM551.082 144.24C550.042 144.24 549.266 143.96 548.754 143.4C548.258 142.84 548.01 142.128 548.01 141.264V126H550.53V140.04C550.53 140.712 550.57 141.2 550.65 141.504C550.73 141.792 550.882 141.984 551.106 142.08C551.33 142.16 551.706 142.2 552.234 142.2L551.922 144.24H551.082ZM559.534 144.24C558.174 144.24 557.006 143.96 556.03 143.4C555.07 142.84 554.342 142.088 553.846 141.144C553.366 140.2 553.126 139.144 553.126 137.976C553.126 136.872 553.35 135.864 553.798 134.952C554.262 134.024 554.926 133.288 555.79 132.744C556.67 132.2 557.71 131.928 558.91 131.928C560.478 131.928 561.726 132.392 562.654 133.32C563.582 134.232 564.046 135.456 564.046 136.992C564.046 137.408 563.998 137.856 563.902 138.336H555.694C555.854 139.664 556.294 140.624 557.014 141.216C557.75 141.808 558.678 142.104 559.798 142.104C561.062 142.104 562.222 141.832 563.278 141.288L563.518 143.328C562.238 143.936 560.91 144.24 559.534 144.24ZM561.478 136.632C561.478 135.88 561.262 135.264 560.83 134.784C560.398 134.304 559.75 134.064 558.886 134.064C557.27 134.064 556.254 134.92 555.838 136.632H561.478ZM576.783 126V144H574.479L574.335 142.872C573.455 143.784 572.303 144.24 570.879 144.24C569.823 144.24 568.879 143.968 568.047 143.424C567.215 142.88 566.567 142.136 566.103 141.192C565.655 140.248 565.431 139.216 565.431 138.096C565.431 136.992 565.647 135.968 566.079 135.024C566.527 134.08 567.159 133.328 567.975 132.768C568.807 132.208 569.775 131.928 570.879 131.928C572.287 131.928 573.423 132.352 574.287 133.2V126H576.783ZM571.287 142.104C572.215 142.104 572.975 141.76 573.567 141.072C574.175 140.368 574.479 139.376 574.479 138.096C574.479 136.864 574.175 135.888 573.567 135.168C572.959 134.432 572.199 134.064 571.287 134.064C570.279 134.064 569.479 134.44 568.887 135.192C568.295 135.928 567.999 136.896 567.999 138.096C567.999 139.248 568.295 140.208 568.887 140.976C569.479 141.728 570.279 142.104 571.287 142.104ZM584.38 150.024C582.7 150.024 581.348 149.712 580.324 149.088C579.3 148.48 578.788 147.632 578.788 146.544C578.788 145.36 579.452 144.432 580.78 143.76C580.044 143.36 579.676 142.832 579.676 142.176C579.676 141.424 580.116 140.856 580.996 140.472C580.356 140.072 579.868 139.536 579.532 138.864C579.196 138.176 579.028 137.408 579.028 136.56C579.028 135.696 579.22 134.912 579.604 134.208C579.988 133.504 580.548 132.944 581.284 132.528C582.02 132.112 582.892 131.904 583.9 131.904C584.956 131.904 585.892 132.184 586.708 132.744C587.476 132.328 588.404 132.12 589.492 132.12H589.924L589.684 133.728H588.916C588.532 133.728 588.18 133.768 587.86 133.848C588.452 134.616 588.748 135.52 588.748 136.56C588.748 137.44 588.556 138.24 588.172 138.96C587.788 139.68 587.228 140.248 586.492 140.664C585.756 141.08 584.892 141.288 583.9 141.288C583.404 141.288 582.916 141.224 582.436 141.096C582.148 141.192 582.004 141.368 582.004 141.624C582.004 141.816 582.116 141.976 582.34 142.104C582.58 142.232 582.956 142.328 583.468 142.392L586.156 142.8C587.468 142.992 588.468 143.368 589.156 143.928C589.844 144.488 590.188 145.256 590.188 146.232C590.188 147.432 589.668 148.36 588.628 149.016C587.604 149.688 586.188 150.024 584.38 150.024ZM583.9 139.368C584.7 139.368 585.316 139.12 585.748 138.624C586.196 138.112 586.42 137.432 586.42 136.584C586.42 135.752 586.196 135.088 585.748 134.592C585.316 134.08 584.7 133.824 583.9 133.824C583.084 133.824 582.452 134.08 582.004 134.592C581.572 135.088 581.355 135.752 581.355 136.584C581.355 137.432 581.572 138.112 582.004 138.624C582.452 139.12 583.084 139.368 583.9 139.368ZM584.523 147.96C586.716 147.96 587.812 147.424 587.812 146.352C587.812 145.92 587.636 145.584 587.284 145.344C586.932 145.12 586.372 144.936 585.604 144.792L582.556 144.312C581.532 144.744 581.02 145.344 581.02 146.112C581.02 146.736 581.324 147.2 581.932 147.504C582.556 147.808 583.42 147.96 584.523 147.96ZM597.245 144.24C595.885 144.24 594.717 143.96 593.741 143.4C592.781 142.84 592.053 142.088 591.557 141.144C591.077 140.2 590.837 139.144 590.837 137.976C590.837 136.872 591.061 135.864 591.509 134.952C591.973 134.024 592.637 133.288 593.501 132.744C594.381 132.2 595.421 131.928 596.621 131.928C598.189 131.928 599.437 132.392 600.365 133.32C601.293 134.232 601.757 135.456 601.757 136.992C601.757 137.408 601.709 137.856 601.613 138.336H593.405C593.565 139.664 594.005 140.624 594.725 141.216C595.461 141.808 596.389 142.104 597.509 142.104C598.773 142.104 599.933 141.832 600.989 141.288L601.229 143.328C599.949 143.936 598.621 144.24 597.245 144.24ZM599.189 136.632C599.189 135.88 598.973 135.264 598.541 134.784C598.109 134.304 597.461 134.064 596.597 134.064C594.981 134.064 593.965 134.92 593.549 136.632H599.189ZM614.005 150.024C612.325 150.024 610.973 149.712 609.949 149.088C608.925 148.48 608.413 147.632 608.413 146.544C608.413 145.36 609.077 144.432 610.405 143.76C609.669 143.36 609.301 142.832 609.301 142.176C609.301 141.424 609.741 140.856 610.621 140.472C609.981 140.072 609.493 139.536 609.157 138.864C608.821 138.176 608.653 137.408 608.653 136.56C608.653 135.696 608.845 134.912 609.229 134.208C609.613 133.504 610.173 132.944 610.909 132.528C611.645 132.112 612.517 131.904 613.525 131.904C614.581 131.904 615.517 132.184 616.333 132.744C617.101 132.328 618.029 132.12 619.117 132.12H619.549L619.309 133.728H618.541C618.157 133.728 617.805 133.768 617.485 133.848C618.077 134.616 618.373 135.52 618.373 136.56C618.373 137.44 618.181 138.24 617.797 138.96C617.413 139.68 616.853 140.248 616.117 140.664C615.381 141.08 614.517 141.288 613.525 141.288C613.029 141.288 612.541 141.224 612.061 141.096C611.773 141.192 611.629 141.368 611.629 141.624C611.629 141.816 611.741 141.976 611.965 142.104C612.205 142.232 612.581 142.328 613.093 142.392L615.781 142.8C617.093 142.992 618.093 143.368 618.781 143.928C619.469 144.488 619.812 145.256 619.812 146.232C619.812 147.432 619.293 148.36 618.253 149.016C617.229 149.688 615.813 150.024 614.005 150.024ZM613.525 139.368C614.325 139.368 614.941 139.12 615.373 138.624C615.821 138.112 616.045 137.432 616.045 136.584C616.045 135.752 615.821 135.088 615.373 134.592C614.941 134.08 614.325 133.824 613.525 133.824C612.709 133.824 612.077 134.08 611.629 134.592C611.197 135.088 610.98 135.752 610.98 136.584C610.98 137.432 611.197 138.112 611.629 138.624C612.077 139.12 612.709 139.368 613.525 139.368ZM614.148 147.96C616.341 147.96 617.437 147.424 617.437 146.352C617.437 145.92 617.261 145.584 616.909 145.344C616.557 145.12 615.997 144.936 615.229 144.792L612.181 144.312C611.157 144.744 610.645 145.344 610.645 146.112C610.645 146.736 610.949 147.2 611.557 147.504C612.181 147.808 613.045 147.96 614.148 147.96ZM621.229 132.144H623.437L623.605 133.8C624.661 132.536 625.765 131.904 626.917 131.904C627.093 131.904 627.277 131.92 627.469 131.952L627.253 134.568C626.997 134.504 626.709 134.472 626.389 134.472C625.845 134.472 625.333 134.6 624.853 134.856C624.373 135.112 624.029 135.408 623.821 135.744V144H621.229V132.144ZM633.962 144.24C632.73 144.24 631.658 143.968 630.746 143.424C629.85 142.864 629.162 142.12 628.682 141.192C628.218 140.248 627.986 139.208 627.986 138.072C627.986 136.936 628.218 135.904 628.682 134.976C629.162 134.032 629.85 133.288 630.746 132.744C631.658 132.184 632.73 131.904 633.962 131.904C635.178 131.904 636.234 132.184 637.13 132.744C638.042 133.288 638.738 134.032 639.218 134.976C639.698 135.904 639.938 136.936 639.938 138.072C639.938 139.208 639.698 140.248 639.218 141.192C638.738 142.12 638.042 142.864 637.13 143.424C636.234 143.968 635.178 144.24 633.962 144.24ZM633.962 142.104C635.05 142.104 635.89 141.744 636.482 141.024C637.074 140.304 637.37 139.32 637.37 138.072C637.37 136.824 637.074 135.84 636.482 135.12C635.89 134.4 635.05 134.04 633.962 134.04C632.874 134.04 632.034 134.4 631.442 135.12C630.85 135.84 630.554 136.824 630.554 138.072C630.554 139.32 630.85 140.304 631.442 141.024C632.034 141.744 632.874 142.104 633.962 142.104ZM640.795 132.144H643.507L645.667 141.096L648.067 132.456H650.419L652.795 141.096L654.979 132.144H657.691L654.163 144H651.691L649.243 135.672L646.771 144H644.323L640.795 132.144ZM662.722 144.24C661.218 144.24 659.874 143.92 658.69 143.28L658.954 140.976C659.418 141.312 659.962 141.6 660.586 141.84C661.21 142.064 661.89 142.176 662.626 142.176C663.314 142.176 663.842 142.064 664.21 141.84C664.578 141.616 664.762 141.28 664.762 140.832C664.762 140.336 664.562 139.96 664.162 139.704C663.778 139.432 663.21 139.176 662.458 138.936C661.69 138.68 661.058 138.432 660.562 138.192C660.066 137.936 659.658 137.584 659.338 137.136C659.018 136.688 658.858 136.112 658.858 135.408C658.858 134.4 659.234 133.568 659.986 132.912C660.754 132.24 661.858 131.904 663.298 131.904C664.546 131.904 665.682 132.184 666.706 132.744L666.442 134.952C665.946 134.584 665.45 134.304 664.954 134.112C664.474 133.904 663.938 133.8 663.346 133.8C662.722 133.8 662.234 133.92 661.882 134.16C661.53 134.4 661.354 134.752 661.354 135.216C661.354 135.552 661.442 135.824 661.618 136.032C661.794 136.24 662.05 136.416 662.386 136.56C662.722 136.704 663.25 136.904 663.97 137.16C664.994 137.512 665.802 137.944 666.394 138.456C667.002 138.968 667.306 139.72 667.306 140.712C667.306 141.736 666.93 142.584 666.178 143.256C665.442 143.912 664.29 144.24 662.722 144.24ZM680.472 144.24C679.112 144.24 677.944 143.96 676.968 143.4C676.008 142.84 675.28 142.088 674.784 141.144C674.304 140.2 674.064 139.144 674.064 137.976C674.064 136.872 674.288 135.864 674.736 134.952C675.2 134.024 675.864 133.288 676.728 132.744C677.608 132.2 678.648 131.928 679.848 131.928C681.416 131.928 682.664 132.392 683.592 133.32C684.52 134.232 684.984 135.456 684.984 136.992C684.984 137.408 684.936 137.856 684.84 138.336H676.632C676.792 139.664 677.232 140.624 677.952 141.216C678.688 141.808 679.616 142.104 680.736 142.104C682 142.104 683.16 141.832 684.216 141.288L684.456 143.328C683.176 143.936 681.848 144.24 680.472 144.24ZM682.416 136.632C682.416 135.88 682.2 135.264 681.768 134.784C681.336 134.304 680.688 134.064 679.824 134.064C678.208 134.064 677.192 134.92 676.776 136.632H682.416ZM685.699 132.144H688.339L691.483 141.072L694.603 132.144H697.243L692.731 144H690.259L685.699 132.144ZM704.331 144.24C702.971 144.24 701.803 143.96 700.827 143.4C699.867 142.84 699.139 142.088 698.643 141.144C698.163 140.2 697.923 139.144 697.923 137.976C697.923 136.872 698.147 135.864 698.595 134.952C699.059 134.024 699.723 133.288 700.587 132.744C701.467 132.2 702.507 131.928 703.707 131.928C705.275 131.928 706.523 132.392 707.451 133.32C708.379 134.232 708.843 135.456 708.843 136.992C708.843 137.408 708.795 137.856 708.699 138.336H700.491C700.651 139.664 701.091 140.624 701.811 141.216C702.547 141.808 703.475 142.104 704.595 142.104C705.859 142.104 707.019 141.832 708.075 141.288L708.315 143.328C707.035 143.936 705.707 144.24 704.331 144.24ZM706.275 136.632C706.275 135.88 706.059 135.264 705.627 134.784C705.195 134.304 704.547 134.064 703.683 134.064C702.067 134.064 701.051 134.92 700.635 136.632H706.275ZM710.948 132.144H713.156L713.324 133.8C714.38 132.536 715.484 131.904 716.636 131.904C716.812 131.904 716.996 131.92 717.188 131.952L716.972 134.568C716.716 134.504 716.428 134.472 716.108 134.472C715.564 134.472 715.052 134.6 714.572 134.856C714.092 135.112 713.748 135.408 713.54 135.744V144H710.948V132.144ZM722.282 143.352L717.338 132.144H720.146L723.554 140.448L726.794 132.144H729.578L722.234 149.808H719.594L722.282 143.352ZM747.15 126V144H744.846L744.702 142.872C743.822 143.784 742.67 144.24 741.246 144.24C740.19 144.24 739.246 143.968 738.414 143.424C737.582 142.88 736.934 142.136 736.47 141.192C736.022 140.248 735.798 139.216 735.798 138.096C735.798 136.992 736.014 135.968 736.446 135.024C736.894 134.08 737.526 133.328 738.342 132.768C739.174 132.208 740.142 131.928 741.246 131.928C742.654 131.928 743.79 132.352 744.654 133.2V126H747.15ZM741.654 142.104C742.582 142.104 743.342 141.76 743.934 141.072C744.542 140.368 744.846 139.376 744.846 138.096C744.846 136.864 744.542 135.888 743.934 135.168C743.326 134.432 742.566 134.064 741.654 134.064C740.646 134.064 739.846 134.44 739.254 135.192C738.662 135.928 738.366 136.896 738.366 138.096C738.366 139.248 738.662 140.208 739.254 140.976C739.846 141.728 740.646 142.104 741.654 142.104ZM752.659 144.24C751.619 144.24 750.763 143.92 750.091 143.28C749.435 142.64 749.107 141.8 749.107 140.76C749.107 139.72 749.467 138.888 750.187 138.264C750.923 137.64 751.811 137.2 752.851 136.944C753.891 136.672 754.947 136.528 756.019 136.512C756.003 135.6 755.803 134.976 755.419 134.64C755.051 134.288 754.451 134.112 753.619 134.112C753.107 134.112 752.595 134.192 752.083 134.352C751.587 134.496 751.035 134.752 750.427 135.12L750.139 133.08C750.731 132.712 751.379 132.432 752.083 132.24C752.803 132.032 753.539 131.928 754.291 131.928C755.763 131.928 756.835 132.328 757.507 133.128C758.179 133.928 758.515 135.288 758.515 137.208V139.968C758.515 140.592 758.539 141.056 758.587 141.36C758.651 141.664 758.763 141.88 758.923 142.008C759.099 142.136 759.371 142.2 759.739 142.2H760.027L759.739 144.24H759.187C758.355 144.24 757.723 144.112 757.291 143.856C756.875 143.6 756.539 143.2 756.283 142.656C755.851 143.152 755.323 143.544 754.699 143.832C754.075 144.104 753.395 144.24 752.659 144.24ZM753.427 142.272C753.891 142.272 754.355 142.16 754.819 141.936C755.299 141.712 755.699 141.4 756.019 141V138.216C753.139 138.312 751.699 139.12 751.699 140.64C751.699 141.728 752.275 142.272 753.427 142.272ZM764.845 143.352L759.901 132.144H762.709L766.117 140.448L769.357 132.144H772.141L764.797 149.808H762.157L764.845 143.352Z" fill="black"/>
<path d="M29.6633 32.287C26.5547 32.287 24.2068 32.9175 22.6195 34.1787C21.0983 35.4399 20.3377 37.4976 20.3377 40.3518C20.3377 41.7457 20.47 44.0357 20.7345 47.2218C20.9991 50.4079 21.1314 52.6316 21.1314 53.8927C21.1314 56.8797 20.5361 59.3025 19.3456 61.161C18.1551 62.9532 16.4024 64.4135 14.0876 65.5419C16.4024 66.6039 18.1551 68.0642 19.3456 69.9228C20.5361 71.7814 21.1314 74.2041 21.1314 77.1911C21.1314 78.4523 20.9991 80.6759 20.7345 83.862C20.47 87.0481 20.3377 89.3381 20.3377 90.732C20.3377 93.5862 21.0983 95.6439 22.6195 96.9051C24.2068 98.1663 26.5547 98.7969 29.6633 98.7969H32.3419V109.65H28.6712C22.5864 109.65 18.0559 108.222 15.0797 105.368C12.1696 102.514 10.7145 98.6309 10.7145 93.719C10.7145 92.4578 10.8468 90.3006 11.1113 87.2472C11.3759 84.0611 11.5082 81.7047 11.5082 80.1781C11.5082 76.4609 10.8798 73.7727 9.62321 72.1132C8.36657 70.3874 6.15092 69.5245 2.97626 69.5245V61.5593C6.15092 61.5593 8.36657 60.7296 9.62321 59.0701C10.8798 57.3443 11.5082 54.6229 11.5082 50.9057C11.5082 49.3791 11.3759 47.0227 11.1113 43.8366C10.8468 40.7832 10.7145 38.626 10.7145 37.3648C10.7145 32.4529 12.1696 28.5698 15.0797 25.7156C18.0559 22.8614 22.5864 21.4343 28.6712 21.4343H32.3419V32.287H29.6633ZM122.395 50.9057C122.395 54.6229 123.023 57.3443 124.28 59.0701C125.537 60.7296 127.752 61.5593 130.927 61.5593V69.5245C127.752 69.5245 125.537 70.3874 124.28 72.1132C123.023 73.7727 122.395 76.4609 122.395 80.1781C122.395 81.7047 122.527 84.0611 122.792 87.2472C123.056 90.3006 123.189 92.4578 123.189 93.719C123.189 98.6309 121.701 102.514 118.724 105.368C115.814 108.222 111.317 109.65 105.232 109.65H101.561V98.7969H104.24C107.348 98.7969 109.663 98.1663 111.185 96.9051C112.772 95.6439 113.566 93.5862 113.566 90.732C113.566 89.3381 113.433 87.0481 113.169 83.862C112.904 80.6759 112.772 78.4523 112.772 77.1911C112.772 71.549 115.12 67.666 119.816 65.5419C115.12 63.4178 112.772 59.5348 112.772 53.8927C112.772 52.6316 112.904 50.4079 113.169 47.2218C113.433 44.0357 113.566 41.7457 113.566 40.3518C113.566 37.4976 112.772 35.4399 111.185 34.1787C109.663 32.9175 107.348 32.287 104.24 32.287H101.561V21.4343H105.232C111.317 21.4343 115.814 22.8614 118.724 25.7156C121.701 28.5698 123.189 32.4529 123.189 37.3648C123.189 38.626 123.056 40.7832 122.792 43.8366C122.527 47.0227 122.395 49.3791 122.395 50.9057Z" fill="black"/>
<path d="M106.251 68.7626L95.3143 64.9214C90.9498 63.3878 86.153 63.6951 82.018 65.7725C77.8833 67.8503 74.7634 71.52 73.371 75.9455L70.5095 85.0406L67.6921 87.1612V68.1673C67.6886 65.6356 68.9501 63.2706 71.0507 61.8694L69.5915 59.6738C66.7592 61.5645 65.0589 64.753 65.0627 68.1673V70.7809L63.3627 69.0748L61.5039 70.9406L65.0627 74.5125V103.499L62.4333 102.179V99.4648C62.4326 92.8274 59.2532 86.5942 53.888 82.7129C48.5221 78.8326 41.6251 77.7764 35.3509 79.8763L29.1513 81.9502C28.6114 82.1286 28.2468 82.6337 28.2468 83.2038C28.2468 83.7742 28.6114 84.2793 29.1513 84.4577L30.559 84.9285C37.3071 87.1802 43.6037 90.6169 49.1549 95.078L60.2969 104.024C60.372 104.077 60.4536 104.121 60.5391 104.156L60.5308 104.173L65.0627 106.449V109.592H67.6921V90.4596L72.4244 86.8967L72.4103 86.8787C72.464 86.8473 72.516 86.8123 72.5657 86.7743C80.8905 78.4461 91.7328 73.1234 103.394 71.641L105.981 71.3171C106.586 71.2403 107.059 70.756 107.124 70.1468C107.189 69.538 106.827 68.9648 106.251 68.7626Z" fill="#3D7606"/>
<path d="M78.8254 41.5977L78.2095 31.6612C78.1702 31.0362 77.699 30.5247 77.0807 30.4364C76.4644 30.3539 75.8733 30.7128 75.6604 31.2997L71.4082 43.2433C69.8181 47.7048 69.0055 52.4082 69.0066 57.1469V60.7714C69.0066 61.3048 69.3269 61.7861 69.8181 61.9904C70.309 62.194 70.8746 62.0813 71.2508 61.7045C76.5312 56.4026 79.2905 49.0804 78.8254 41.5977Z" fill="#5FA819"/>
<path d="M47.8835 47.9143L39.1845 45.012C38.7353 44.8609 38.2396 44.9647 37.8872 45.2831C37.5355 45.6022 37.3815 46.0858 37.4849 46.5505L38.931 53.0976C41.2465 63.7802 50.6923 71.3807 61.5852 71.3274H62.4333C63.1595 71.3274 63.7478 70.7366 63.7478 70.0079C63.7565 59.9814 57.3627 51.0783 47.8835 47.9143Z" fill="#5FA819"/>
<path d="M54.3475 65.5219C49.3096 62.4098 45.1801 58.0185 42.375 52.7916L38.2289 45.0601C37.6554 45.3083 37.3416 45.933 37.4849 46.5432L38.931 53.0903C41.2438 63.7764 50.6906 71.38 61.5852 71.3275H62.4333C62.7323 71.3223 63.02 71.2134 63.248 71.0187L54.3475 65.5219Z" fill="#589C17"/>
<path d="M82.4396 74.8893C79.6697 76.8744 77.4803 79.5676 76.0979 82.689L75.4902 84.0615C83.3821 77.272 93.0828 72.9527 103.394 71.6386L105.899 71.3275H93.5224C89.5482 71.3261 85.6735 72.572 82.4396 74.8893Z" fill="#589C17"/>
<path d="M61.8074 104.815L61.7812 104.671C59.1667 90.2363 46.0788 80.139 31.5084 81.3155L30.8967 81.3646L29.1513 81.9488C28.6114 82.1272 28.2468 82.6323 28.2468 83.2027C28.2468 83.7728 28.6114 84.2779 29.1513 84.4556L30.559 84.9271C37.3071 87.1798 43.6037 90.6162 49.1549 95.078L60.2969 104.024C60.372 104.077 60.4537 104.121 60.5391 104.156L60.5308 104.173L61.8074 104.815Z" fill="#589C17"/>
</svg>
