<svg width="751" height="155" viewBox="0 0 751 155" fill="none" xmlns="http://www.w3.org/2000/svg">
<path d="M359.021 145.409C359.021 146.786 358.61 147.969 357.789 148.957C356.92 149.994 355.817 150.512 354.48 150.512C353.979 150.512 353.224 150.5 352.215 150.476C351.214 150.453 350.463 150.441 349.962 150.441C349.594 150.441 349.039 150.457 348.296 150.488C347.561 150.52 347.009 150.536 346.641 150.536C346.446 150.536 346.348 150.445 346.348 150.263C346.348 149.393 346.387 148.087 346.465 146.347C346.552 144.599 346.595 143.289 346.595 142.419C346.595 141.502 346.552 140.125 346.465 138.29C346.387 136.447 346.348 135.066 346.348 134.149C346.348 133.975 346.446 133.888 346.641 133.888C347.338 133.888 348.386 133.891 349.786 133.899C351.186 133.907 352.238 133.911 352.943 133.911C354.585 133.911 355.896 134.22 356.873 134.837C358.062 135.588 358.657 136.755 358.657 138.337C358.657 138.883 358.5 139.453 358.188 140.046C357.875 140.631 357.495 141.074 357.049 141.375C356.822 141.525 356.709 141.624 356.709 141.672C356.709 141.719 356.822 141.806 357.049 141.933C357.644 142.265 358.121 142.755 358.481 143.404C358.841 144.045 359.021 144.713 359.021 145.409ZM355.723 138.598C355.723 137.483 355.231 136.731 354.245 136.344C353.65 136.114 352.677 136 351.323 136C350.009 136 349.352 136.099 349.352 136.296C349.352 136.557 349.34 136.949 349.317 137.471C349.293 137.993 349.282 138.389 349.282 138.658C349.282 138.84 349.285 139.12 349.293 139.5C349.301 139.88 349.305 140.165 349.305 140.355C349.305 140.584 350.189 140.699 351.957 140.699C354.468 140.699 355.723 139.999 355.723 138.598ZM356.04 145.291C356.04 144.326 355.614 143.673 354.761 143.333C354.221 143.111 353.381 143.001 352.238 143.001C350.267 143.001 349.282 143.107 349.282 143.321V145.267C349.282 145.552 349.289 145.987 349.305 146.572C349.321 147.158 349.329 147.597 349.329 147.889C349.329 147.969 349.579 148.028 350.079 148.067C350.58 148.107 351.323 148.127 352.309 148.127C353.545 148.127 354.433 147.965 354.972 147.64C355.684 147.213 356.04 146.43 356.04 145.291Z" fill="black"/>
<path d="M370.954 144.164C370.954 144.749 370.704 145.141 370.203 145.338C369.867 145.465 367.445 145.698 362.94 146.038C363.041 146.735 363.421 147.328 364.078 147.818C364.704 148.285 365.376 148.518 366.096 148.518C367.332 148.518 368.466 148.115 369.499 147.308C369.624 147.205 369.749 147.102 369.874 147C369.937 147 369.976 147.007 369.992 147.023C370.015 147.039 370.164 147.316 370.438 147.854C370.711 148.384 370.848 148.669 370.848 148.708C370.848 148.756 370.786 148.847 370.66 148.981C369.511 150.215 368.036 150.832 366.237 150.832C364.422 150.832 362.975 150.286 361.895 149.195C360.816 148.095 360.276 146.632 360.276 144.804C360.276 143.175 360.792 141.755 361.825 140.544C362.912 139.287 364.246 138.658 365.826 138.658C367.297 138.658 368.525 139.204 369.511 140.295C370.473 141.355 370.954 142.645 370.954 144.164ZM368.161 143.44C368.161 142.783 367.903 142.202 367.387 141.695C366.878 141.189 366.303 140.936 365.662 140.936C364.942 140.936 364.301 141.229 363.738 141.814C363.182 142.399 362.904 143.056 362.904 143.784C362.904 143.95 363.045 144.033 363.327 144.033C364.485 144.033 365.869 143.914 367.481 143.677C367.934 143.614 368.161 143.535 368.161 143.44Z" fill="black"/>
<path d="M380.798 139.773C380.798 139.947 380.708 140.335 380.529 140.936C380.349 141.537 380.224 141.838 380.153 141.838C379.801 141.68 379.445 141.521 379.085 141.363C378.733 141.205 378.346 141.126 377.924 141.126C376.962 141.126 376.16 141.486 375.518 142.206C374.877 142.926 374.556 143.776 374.556 144.757C374.556 145.722 374.877 146.557 375.518 147.261C376.175 147.988 376.977 148.352 377.924 148.352C378.448 148.352 378.964 148.222 379.473 147.961C379.981 147.7 380.204 147.569 380.141 147.569C380.243 147.569 380.356 147.901 380.482 148.566C380.599 149.167 380.658 149.582 380.658 149.812C380.658 150.057 380.2 150.298 379.285 150.536C378.518 150.733 377.951 150.832 377.583 150.832C375.972 150.832 374.611 150.223 373.5 149.005C372.413 147.818 371.869 146.402 371.869 144.757C371.869 143.08 372.401 141.656 373.465 140.485C374.56 139.283 375.925 138.681 377.56 138.681C378.655 138.681 379.656 138.962 380.564 139.524C380.72 139.619 380.798 139.702 380.798 139.773Z" fill="black"/>
<path d="M393.682 139.797C393.682 139.828 393.67 139.9 393.647 140.01C393.342 141.822 393.189 143.384 393.189 144.698C393.189 144.777 393.287 146.553 393.483 150.025L393.494 150.192C393.502 150.421 393.397 150.536 393.178 150.536C392.966 150.536 392.642 150.559 392.204 150.607C391.773 150.662 391.453 150.69 391.242 150.69C391.093 150.69 390.979 150.413 390.901 149.859C390.823 149.306 390.749 149.029 390.678 149.029C390.631 149.029 390.42 149.183 390.045 149.491C389.583 149.871 389.153 150.16 388.754 150.358C388.136 150.674 387.518 150.832 386.9 150.832C385.382 150.832 384.103 150.219 383.063 148.993C382.077 147.822 381.585 146.458 381.585 144.899C381.585 143.143 382.081 141.691 383.075 140.544C384.115 139.35 385.484 138.753 387.182 138.753C388.378 138.753 389.423 139.172 390.315 140.01C390.448 140.169 390.655 140.398 390.936 140.699C390.96 140.722 390.983 140.734 391.007 140.734C391.054 140.734 391.12 140.485 391.206 139.987C391.292 139.488 391.402 139.239 391.535 139.239C391.746 139.239 392.141 139.298 392.72 139.417C393.361 139.56 393.682 139.686 393.682 139.797ZM390.69 144.757C390.69 143.784 390.404 142.949 389.833 142.253C389.231 141.502 388.461 141.126 387.522 141.126C386.583 141.126 385.801 141.498 385.175 142.241C384.573 142.953 384.272 143.792 384.272 144.757C384.272 145.714 384.573 146.545 385.175 147.249C385.801 147.984 386.583 148.352 387.522 148.352C388.437 148.352 389.204 147.977 389.822 147.225C390.401 146.521 390.69 145.698 390.69 144.757Z" fill="black"/>
<path d="M406.472 139.773C406.472 140.351 406.448 141.225 406.402 142.396C406.355 143.558 406.331 144.433 406.331 145.018C406.331 145.595 406.347 146.462 406.378 147.617C406.417 148.764 406.437 149.626 406.437 150.203C406.437 150.362 406.362 150.464 406.214 150.512C406.151 150.528 405.357 150.536 403.832 150.536C403.738 150.536 403.679 150.239 403.656 149.646C403.64 149.052 403.597 148.756 403.527 148.756C403.488 148.756 403.429 148.791 403.351 148.863C402.044 150.01 400.754 150.583 399.479 150.583C397.75 150.583 396.608 149.95 396.052 148.685C395.708 147.901 395.536 146.493 395.536 144.46C395.536 142.625 395.681 141.07 395.97 139.797C396.041 139.488 396.17 139.334 396.357 139.334C396.584 139.334 396.925 139.338 397.378 139.346C397.832 139.354 398.172 139.358 398.399 139.358C398.556 139.358 398.634 139.445 398.634 139.619C398.634 139.927 398.583 140.442 398.481 141.161C398.372 141.929 398.313 142.471 398.305 142.787C398.282 143.262 398.27 143.784 398.27 144.353C398.27 145.738 398.368 146.667 398.563 147.142C398.9 147.996 399.647 148.423 400.805 148.423C401.297 148.423 401.88 148.178 402.553 147.688C403.265 147.174 403.632 146.679 403.656 146.205C403.695 145.611 403.714 143.523 403.714 139.939C403.714 139.552 403.875 139.358 404.196 139.358H406.132C406.358 139.358 406.472 139.496 406.472 139.773Z" fill="black"/>
<path d="M414.357 146.881C414.357 148.06 413.892 149.005 412.961 149.717C412.116 150.366 411.087 150.69 409.875 150.69C409.405 150.69 409.139 150.678 409.077 150.654C408.944 150.591 408.877 150.397 408.877 150.073C408.877 149.899 408.854 149.638 408.807 149.29C408.768 148.942 408.748 148.685 408.748 148.518C408.748 148.416 408.819 148.348 408.959 148.317C409.061 148.293 409.206 148.293 409.394 148.317C409.636 148.34 409.753 148.352 409.746 148.352C411.224 148.352 411.963 147.893 411.963 146.976C411.963 146.541 411.639 146.141 410.989 145.777C409.933 145.192 409.327 144.832 409.171 144.698C408.521 144.136 408.197 143.4 408.197 142.49C408.197 141.304 408.639 140.378 409.523 139.714C410.321 139.12 411.33 138.824 412.55 138.824C412.66 138.824 412.738 138.875 412.785 138.978C412.839 139.081 412.937 139.401 413.078 139.939C413.227 140.477 413.301 140.801 413.301 140.912C413.301 140.999 413.227 141.055 413.078 141.078C412.577 141.15 412.073 141.217 411.564 141.28C410.962 141.446 410.661 141.778 410.661 142.277C410.661 142.633 410.978 142.993 411.611 143.357C412.55 143.887 413.145 144.27 413.395 144.508C414.036 145.125 414.357 145.916 414.357 146.881Z" fill="black"/>
<path d="M425.985 144.164C425.985 144.749 425.735 145.141 425.234 145.338C424.898 145.465 422.477 145.698 417.971 146.038C418.073 146.735 418.452 147.328 419.109 147.818C419.735 148.285 420.408 148.518 421.127 148.518C422.363 148.518 423.498 148.115 424.53 147.308C424.655 147.205 424.78 147.102 424.906 147C424.968 147 425.007 147.007 425.023 147.023C425.046 147.039 425.195 147.316 425.469 147.854C425.743 148.384 425.88 148.669 425.88 148.708C425.88 148.756 425.817 148.847 425.692 148.981C424.542 150.215 423.067 150.832 421.268 150.832C419.453 150.832 418.006 150.286 416.927 149.195C415.847 148.095 415.307 146.632 415.307 144.804C415.307 143.175 415.824 141.755 416.856 140.544C417.944 139.287 419.277 138.658 420.858 138.658C422.328 138.658 423.556 139.204 424.542 140.295C425.504 141.355 425.985 142.645 425.985 144.164ZM423.193 143.44C423.193 142.783 422.934 142.202 422.418 141.695C421.91 141.189 421.335 140.936 420.693 140.936C419.974 140.936 419.332 141.229 418.769 141.814C418.214 142.399 417.936 143.056 417.936 143.784C417.936 143.95 418.077 144.033 418.358 144.033C419.516 144.033 420.901 143.914 422.512 143.677C422.966 143.614 423.193 143.535 423.193 143.44Z" fill="black"/>
<path d="M444.278 144.757C444.278 146.41 443.742 147.822 442.671 148.993C441.575 150.203 440.218 150.809 438.599 150.809C436.972 150.809 435.611 150.207 434.516 149.005C433.444 147.842 432.908 146.434 432.908 144.781C432.908 143.127 433.444 141.719 434.516 140.556C435.619 139.37 436.98 138.776 438.599 138.776C440.21 138.776 441.564 139.37 442.659 140.556C443.738 141.711 444.278 143.111 444.278 144.757ZM441.802 144.781C441.802 143.815 441.509 142.993 440.922 142.312C440.312 141.593 439.538 141.233 438.599 141.233C437.66 141.233 436.882 141.589 436.264 142.301C435.677 142.989 435.384 143.815 435.384 144.781C435.384 145.73 435.681 146.553 436.276 147.249C436.901 147.984 437.676 148.352 438.599 148.352C439.53 148.352 440.304 147.984 440.922 147.249C441.509 146.553 441.802 145.73 441.802 144.781Z" fill="black"/>
<path d="M456.81 139.773C456.81 140.351 456.786 141.225 456.739 142.396C456.692 143.558 456.669 144.433 456.669 145.018C456.669 145.595 456.685 146.462 456.716 147.617C456.755 148.764 456.775 149.626 456.775 150.203C456.775 150.362 456.7 150.464 456.552 150.512C456.489 150.528 455.695 150.536 454.17 150.536C454.076 150.536 454.017 150.239 453.994 149.646C453.978 149.052 453.935 148.756 453.865 148.756C453.825 148.756 453.767 148.791 453.689 148.863C452.382 150.01 451.091 150.583 449.816 150.583C448.088 150.583 446.946 149.95 446.39 148.685C446.046 147.901 445.874 146.493 445.874 144.46C445.874 142.625 446.019 141.07 446.308 139.797C446.378 139.488 446.508 139.334 446.695 139.334C446.922 139.334 447.262 139.338 447.716 139.346C448.17 139.354 448.51 139.358 448.737 139.358C448.893 139.358 448.972 139.445 448.972 139.619C448.972 139.927 448.921 140.442 448.819 141.161C448.71 141.929 448.651 142.471 448.643 142.787C448.62 143.262 448.608 143.784 448.608 144.353C448.608 145.738 448.706 146.667 448.901 147.142C449.238 147.996 449.985 148.423 451.142 148.423C451.635 148.423 452.218 148.178 452.891 147.688C453.603 147.174 453.97 146.679 453.994 146.205C454.033 145.611 454.052 143.523 454.052 139.939C454.052 139.552 454.213 139.358 454.533 139.358H456.469C456.696 139.358 456.81 139.496 456.81 139.773Z" fill="black"/>
<path d="M465.915 139.393C465.915 140.264 465.856 141.055 465.739 141.767C465.716 141.949 465.637 142.04 465.504 142.04C465.34 142.04 465.09 142.024 464.753 141.992C464.425 141.953 464.175 141.933 464.003 141.933C463.017 141.933 462.387 142.214 462.113 142.775C461.949 143.115 461.867 143.823 461.867 144.899V146.205C461.867 146.648 461.883 147.32 461.914 148.222C461.953 149.124 461.973 149.796 461.973 150.239C461.973 150.453 461.883 150.559 461.703 150.559C461.46 150.559 461.093 150.555 460.6 150.547C460.107 150.54 459.739 150.536 459.497 150.536C459.317 150.536 459.227 150.437 459.227 150.239C459.227 149.598 459.235 148.633 459.25 147.344C459.274 146.054 459.286 145.085 459.286 144.436C459.286 142.483 459.106 140.912 458.746 139.726C458.73 139.662 458.722 139.615 458.722 139.583C458.722 139.488 458.773 139.421 458.875 139.382C459.164 139.35 459.571 139.302 460.095 139.239C460.94 139.081 461.331 139.002 461.269 139.002C461.394 139.002 461.476 139.235 461.515 139.702C461.554 140.169 461.624 140.402 461.726 140.402C461.742 140.402 461.761 140.394 461.785 140.378C462.106 140.173 462.426 139.967 462.747 139.761C463.099 139.548 463.459 139.389 463.827 139.287C464.132 139.192 464.523 139.144 465 139.144C465.61 139.144 465.915 139.227 465.915 139.393Z" fill="black"/>
<path d="M484.748 142.396C484.748 144.452 483.805 145.829 481.92 146.525C481.92 146.928 482.311 147.66 483.093 148.72C483.876 149.772 484.267 150.298 484.267 150.298C484.267 150.417 483.876 150.496 483.093 150.536C482.577 150.559 482.19 150.571 481.932 150.571C481.376 150.571 481.028 150.453 480.887 150.215C480.52 149.582 479.941 148.661 479.151 147.45C479.057 147.308 478.208 147.249 476.605 147.272L476.147 147.284V150.215C476.147 150.46 476.061 150.583 475.889 150.583C475.639 150.583 475.267 150.579 474.774 150.571C474.289 150.563 473.921 150.559 473.671 150.559C473.499 150.559 473.413 150.405 473.413 150.097V142.716C473.413 141.751 473.374 140.307 473.296 138.385C473.225 136.462 473.19 135.019 473.19 134.054C473.19 133.911 473.264 133.832 473.413 133.816C473.671 133.808 474.062 133.793 474.586 133.769C474.696 133.761 474.927 133.733 475.279 133.686C475.56 133.646 475.787 133.626 475.959 133.626C476.069 133.626 476.124 133.721 476.124 133.911C476.124 134.338 476.104 134.975 476.065 135.822C476.026 136.668 476.006 137.305 476.006 137.732V140.794C476.006 140.96 476.041 141.043 476.112 141.043C476.3 140.885 476.581 140.651 476.957 140.343C478.271 139.314 479.522 138.8 480.711 138.8C481.869 138.8 482.816 139.101 483.551 139.702C484.349 140.358 484.748 141.256 484.748 142.396ZM481.92 142.953C481.92 141.822 481.196 141.256 479.749 141.256C478.67 141.256 477.453 141.984 476.1 143.44V145.208C476.734 145.326 477.5 145.386 478.4 145.386C479.307 145.386 480.082 145.212 480.723 144.864C481.521 144.429 481.92 143.792 481.92 142.953Z" fill="black"/>
<path d="M496.693 150.298C496.693 150.472 496.615 150.559 496.458 150.559C496.2 150.559 495.813 150.555 495.296 150.547C494.788 150.54 494.405 150.536 494.147 150.536C494.006 150.536 493.935 150.421 493.935 150.192C493.935 149.804 493.947 149.215 493.971 148.423C493.994 147.632 494.006 147.039 494.006 146.644C494.006 146.327 494.002 145.856 493.994 145.231C493.986 144.599 493.982 144.124 493.982 143.808C493.982 142.906 493.853 142.269 493.595 141.897C493.282 141.454 492.703 141.233 491.858 141.233C491.467 141.233 490.924 141.454 490.227 141.897C489.492 142.364 489.125 142.779 489.125 143.143V150.263C489.125 150.46 489.05 150.559 488.902 150.559C488.651 150.559 488.276 150.555 487.775 150.547C487.274 150.54 486.899 150.536 486.649 150.536C486.484 150.536 486.402 150.445 486.402 150.263C486.402 149.638 486.41 148.7 486.426 147.45C486.449 146.201 486.461 145.259 486.461 144.626C486.461 142.941 486.285 141.387 485.933 139.963C485.909 139.892 485.898 139.84 485.898 139.809C485.898 139.73 485.949 139.674 486.05 139.643C486.105 139.635 486.551 139.563 487.388 139.429C488.233 139.287 488.675 139.215 488.714 139.215C488.761 139.215 488.792 139.279 488.808 139.405C488.847 139.896 488.937 140.39 489.078 140.889C489.484 140.564 490.02 140.161 490.685 139.678C491.506 139.172 492.3 138.919 493.067 138.919C494.538 138.919 495.543 139.35 496.083 140.212C496.482 140.845 496.681 141.869 496.681 143.285C496.681 143.531 496.673 143.906 496.658 144.413C496.65 144.919 496.646 145.299 496.646 145.552C496.646 146.082 496.654 146.873 496.669 147.925C496.685 148.977 496.693 149.768 496.693 150.298Z" fill="black"/>
<path d="M509.565 144.757C509.565 146.41 509.029 147.822 507.957 148.993C506.862 150.203 505.505 150.809 503.886 150.809C502.259 150.809 500.897 150.207 499.802 149.005C498.731 147.842 498.195 146.434 498.195 144.781C498.195 143.127 498.731 141.719 499.802 140.556C500.905 139.37 502.266 138.776 503.886 138.776C505.497 138.776 506.85 139.37 507.945 140.556C509.025 141.711 509.565 143.111 509.565 144.757ZM507.089 144.781C507.089 143.815 506.796 142.993 506.209 142.312C505.599 141.593 504.824 141.233 503.886 141.233C502.947 141.233 502.169 141.589 501.551 142.301C500.964 142.989 500.671 143.815 500.671 144.781C500.671 145.73 500.968 146.553 501.562 147.249C502.188 147.984 502.963 148.352 503.886 148.352C504.816 148.352 505.591 147.984 506.209 147.249C506.796 146.553 507.089 145.73 507.089 144.781Z" fill="black"/>
<path d="M526.978 142.028C526.978 143.515 526.895 144.448 526.731 144.828C526.512 145.35 525.933 146.39 524.995 147.949C523.978 149.634 523.364 150.504 523.152 150.559C523.09 150.575 522.777 150.583 522.214 150.583C521.83 150.583 521.607 150.575 521.545 150.559C521.302 150.496 520.372 149.135 518.752 146.477C518.306 147.221 517.857 147.969 517.403 148.72C516.668 149.891 516.198 150.504 515.995 150.559C515.932 150.575 515.674 150.583 515.22 150.583C514.759 150.583 514.497 150.575 514.434 150.559C514.192 150.504 513.578 149.642 512.592 147.973C511.661 146.398 511.098 145.35 510.902 144.828C510.722 144.353 510.632 143.42 510.632 142.028C510.632 140.865 510.672 140.07 510.75 139.643C510.789 139.469 510.887 139.382 511.043 139.382C511.278 139.382 511.63 139.389 512.099 139.405C512.569 139.421 512.921 139.429 513.155 139.429C513.304 139.429 513.378 139.552 513.378 139.797C513.378 139.971 513.37 140.236 513.355 140.592C513.339 140.94 513.331 141.201 513.331 141.375C513.331 142.751 513.37 143.725 513.449 144.294C513.519 144.792 514.133 145.837 515.291 147.427C515.432 147.617 515.514 147.712 515.537 147.712C515.561 147.712 515.631 147.624 515.748 147.45C516.765 145.955 517.344 144.935 517.485 144.389C517.579 144.009 517.626 143.159 517.626 141.838C517.626 141.569 517.61 141.169 517.579 140.639C517.548 140.109 517.532 139.714 517.532 139.453C517.532 139.279 517.602 139.192 517.743 139.192H519.984C520.109 139.192 520.172 139.295 520.172 139.5C520.172 139.753 520.16 140.137 520.137 140.651C520.113 141.157 520.102 141.537 520.102 141.79C520.102 143.191 520.125 144.001 520.172 144.223C520.219 144.436 520.587 145.057 521.275 146.086C521.963 147.106 522.358 147.617 522.46 147.617C522.484 147.617 522.554 147.522 522.671 147.332C523.665 145.805 524.201 144.785 524.279 144.27C524.349 143.843 524.384 143.119 524.384 142.099C524.384 141.798 524.361 141.367 524.314 140.805C524.267 140.236 524.244 139.828 524.244 139.583C524.244 139.465 524.322 139.405 524.478 139.405C524.713 139.405 525.061 139.397 525.523 139.382C525.984 139.366 526.332 139.358 526.567 139.358C526.739 139.358 526.845 139.437 526.884 139.595C526.946 139.904 526.978 140.714 526.978 142.028Z" fill="black"/>
<path d="M531.73 134.077L531.718 134.232C531.546 137.174 531.46 139.702 531.46 141.814C531.46 142.755 531.476 144.168 531.507 146.05C531.538 147.925 531.554 149.329 531.554 150.263C531.554 150.445 531.491 150.536 531.366 150.536H529.125C528.984 150.536 528.914 150.445 528.914 150.263C528.914 149.329 528.922 147.925 528.937 146.05C528.953 144.168 528.961 142.755 528.961 141.814C528.961 140.96 528.918 139.678 528.832 137.969C528.753 136.253 528.714 134.971 528.714 134.125C528.714 133.967 528.796 133.888 528.961 133.888C529.101 133.888 529.313 133.899 529.594 133.923C529.876 133.947 530.087 133.959 530.228 133.959C530.376 133.959 530.596 133.947 530.885 133.923C531.174 133.899 531.39 133.888 531.53 133.888C531.671 133.888 531.738 133.951 531.73 134.077Z" fill="black"/>
<path d="M544.003 144.164C544.003 144.749 543.753 145.141 543.252 145.338C542.916 145.465 540.495 145.698 535.989 146.038C536.091 146.735 536.47 147.328 537.127 147.818C537.753 148.285 538.426 148.518 539.146 148.518C540.381 148.518 541.516 148.115 542.548 147.308C542.673 147.205 542.799 147.102 542.924 147C542.986 147 543.025 147.007 543.041 147.023C543.065 147.039 543.213 147.316 543.487 147.854C543.761 148.384 543.898 148.669 543.898 148.708C543.898 148.756 543.835 148.847 543.71 148.981C542.56 150.215 541.086 150.832 539.286 150.832C537.472 150.832 536.024 150.286 534.945 149.195C533.865 148.095 533.326 146.632 533.326 144.804C533.326 143.175 533.842 141.755 534.874 140.544C535.962 139.287 537.296 138.658 538.876 138.658C540.346 138.658 541.574 139.204 542.56 140.295C543.522 141.355 544.003 142.645 544.003 144.164ZM541.211 143.44C541.211 142.783 540.953 142.202 540.436 141.695C539.928 141.189 539.353 140.936 538.711 140.936C537.992 140.936 537.35 141.229 536.787 141.814C536.232 142.399 535.954 143.056 535.954 143.784C535.954 143.95 536.095 144.033 536.376 144.033C537.534 144.033 538.919 143.914 540.53 143.677C540.984 143.614 541.211 143.535 541.211 143.44Z" fill="black"/>
<path d="M556.934 133.982C556.934 135.003 556.887 136.534 556.793 138.575C556.707 140.608 556.664 142.13 556.664 143.143C556.664 146.268 556.731 148.633 556.863 150.239L556.875 150.393C556.883 150.472 556.777 150.524 556.558 150.547C556.41 150.563 556.199 150.563 555.925 150.547C555.596 150.524 555.444 150.512 555.467 150.512C555.35 150.512 555.178 150.524 554.951 150.547C554.724 150.571 554.552 150.583 554.435 150.583C554.325 150.583 554.259 150.31 554.235 149.764C554.219 149.211 554.192 148.93 554.153 148.922C554.106 148.946 554.047 148.997 553.977 149.076C552.905 150.247 551.673 150.832 550.281 150.832C548.701 150.832 547.402 150.223 546.385 149.005C545.423 147.858 544.942 146.473 544.942 144.852C544.942 143.167 545.427 141.751 546.397 140.604C547.414 139.401 548.74 138.8 550.375 138.8C551.36 138.8 552.221 139.093 552.956 139.678C553.293 139.971 553.625 140.268 553.954 140.568C554.016 140.544 554.047 140.489 554.047 140.402V136.557C554.047 136.296 554.036 135.901 554.012 135.371C553.989 134.841 553.977 134.441 553.977 134.172C553.977 133.982 554.04 133.888 554.165 133.888C554.454 133.888 554.884 133.864 555.455 133.816C556.026 133.761 556.453 133.733 556.734 133.733C556.867 133.733 556.934 133.816 556.934 133.982ZM554 144.781C554 143.831 553.711 142.997 553.132 142.277C552.514 141.51 551.748 141.126 550.832 141.126C549.87 141.126 549.076 141.506 548.45 142.265C547.856 142.977 547.559 143.831 547.559 144.828C547.559 145.777 547.868 146.604 548.486 147.308C549.119 148.052 549.901 148.423 550.832 148.423C551.771 148.423 552.545 148.048 553.156 147.296C553.719 146.592 554 145.754 554 144.781Z" fill="black"/>
<path d="M569.372 139.476C569.372 140.426 569.364 141.854 569.348 143.76C569.333 145.659 569.325 147.083 569.325 148.032C569.325 149.915 568.926 151.303 568.128 152.197C567.291 153.146 565.953 153.621 564.115 153.621C562.339 153.621 560.904 153.281 559.809 152.6C559.637 152.49 559.551 152.395 559.551 152.316C559.551 152.403 559.668 151.817 559.903 150.559C559.926 150.425 559.981 150.358 560.067 150.358C560.106 150.358 560.157 150.377 560.219 150.417C561.393 151.097 562.57 151.437 563.751 151.437C564.526 151.437 565.167 151.263 565.676 150.915C566.262 150.52 566.556 149.946 566.556 149.195C566.556 149.029 566.54 148.657 566.509 148.079C565.64 149.147 564.537 149.681 563.2 149.681C561.753 149.681 560.564 149.155 559.633 148.103C558.741 147.091 558.295 145.845 558.295 144.365C558.295 142.862 558.725 141.585 559.586 140.533C560.501 139.409 561.69 138.848 563.153 138.848C564.444 138.848 565.468 139.35 566.227 140.355C566.352 140.521 566.442 140.604 566.497 140.604C566.559 140.604 566.591 140.533 566.591 140.39C566.591 140.287 566.583 140.125 566.567 139.904C566.552 139.674 566.544 139.504 566.544 139.393C566.544 138.919 566.591 138.681 566.685 138.681C566.763 138.681 567.185 138.757 567.952 138.907C568.719 139.049 569.137 139.136 569.207 139.168C569.317 139.207 569.372 139.31 569.372 139.476ZM566.556 144.365C566.556 143.479 566.317 142.728 565.84 142.111C565.316 141.438 564.627 141.102 563.775 141.102C562.93 141.102 562.245 141.442 561.721 142.123C561.244 142.74 561.006 143.487 561.006 144.365C561.006 145.228 561.248 145.971 561.733 146.596C562.257 147.276 562.938 147.617 563.775 147.617C564.604 147.617 565.284 147.276 565.816 146.596C566.309 145.971 566.556 145.228 566.556 144.365Z" fill="black"/>
<path d="M581.481 144.164C581.481 144.749 581.231 145.141 580.73 145.338C580.394 145.465 577.973 145.698 573.467 146.038C573.568 146.735 573.948 147.328 574.605 147.818C575.231 148.285 575.903 148.518 576.623 148.518C577.859 148.518 578.993 148.115 580.026 147.308C580.151 147.205 580.276 147.102 580.401 147C580.464 147 580.503 147.007 580.519 147.023C580.542 147.039 580.691 147.316 580.965 147.854C581.238 148.384 581.375 148.669 581.375 148.708C581.375 148.756 581.313 148.847 581.188 148.981C580.038 150.215 578.563 150.832 576.764 150.832C574.949 150.832 573.502 150.286 572.422 149.195C571.343 148.095 570.803 146.632 570.803 144.804C570.803 143.175 571.319 141.755 572.352 140.544C573.439 139.287 574.773 138.658 576.353 138.658C577.824 138.658 579.052 139.204 580.038 140.295C581 141.355 581.481 142.645 581.481 144.164ZM578.688 143.44C578.688 142.783 578.43 142.202 577.914 141.695C577.405 141.189 576.83 140.936 576.189 140.936C575.469 140.936 574.828 141.229 574.265 141.814C573.709 142.399 573.432 143.056 573.432 143.784C573.432 143.95 573.572 144.033 573.854 144.033C575.012 144.033 576.396 143.914 578.008 143.677C578.461 143.614 578.688 143.535 578.688 143.44Z" fill="black"/>
<path d="M599.481 139.476C599.481 140.426 599.473 141.854 599.457 143.76C599.441 145.659 599.434 147.083 599.434 148.032C599.434 149.915 599.035 151.303 598.237 152.197C597.4 153.146 596.062 153.621 594.224 153.621C592.448 153.621 591.013 153.281 589.917 152.6C589.745 152.49 589.659 152.395 589.659 152.316C589.659 152.403 589.777 151.817 590.011 150.559C590.035 150.425 590.09 150.358 590.176 150.358C590.215 150.358 590.266 150.377 590.328 150.417C591.502 151.097 592.679 151.437 593.86 151.437C594.634 151.437 595.276 151.263 595.784 150.915C596.371 150.52 596.664 149.946 596.664 149.195C596.664 149.029 596.649 148.657 596.617 148.079C595.749 149.147 594.646 149.681 593.309 149.681C591.861 149.681 590.672 149.155 589.741 148.103C588.85 147.091 588.404 145.845 588.404 144.365C588.404 142.862 588.834 141.585 589.695 140.533C590.61 139.409 591.799 138.848 593.262 138.848C594.552 138.848 595.577 139.35 596.336 140.355C596.461 140.521 596.551 140.604 596.606 140.604C596.668 140.604 596.7 140.533 596.7 140.39C596.7 140.287 596.692 140.125 596.676 139.904C596.66 139.674 596.653 139.504 596.653 139.393C596.653 138.919 596.7 138.681 596.793 138.681C596.872 138.681 597.294 138.757 598.061 138.907C598.827 139.049 599.246 139.136 599.316 139.168C599.426 139.207 599.481 139.31 599.481 139.476ZM596.664 144.365C596.664 143.479 596.426 142.728 595.949 142.111C595.425 141.438 594.736 141.102 593.884 141.102C593.039 141.102 592.354 141.442 591.83 142.123C591.353 142.74 591.114 143.487 591.114 144.365C591.114 145.228 591.357 145.971 591.842 146.596C592.366 147.276 593.046 147.617 593.884 147.617C594.713 147.617 595.393 147.276 595.925 146.596C596.418 145.971 596.664 145.228 596.664 144.365Z" fill="black"/>
<path d="M608.363 139.393C608.363 140.264 608.304 141.055 608.187 141.767C608.163 141.949 608.085 142.04 607.952 142.04C607.788 142.04 607.538 142.024 607.201 141.992C606.873 141.953 606.622 141.933 606.45 141.933C605.465 141.933 604.835 142.214 604.561 142.775C604.397 143.115 604.315 143.823 604.315 144.899V146.205C604.315 146.648 604.33 147.32 604.362 148.222C604.401 149.124 604.42 149.796 604.42 150.239C604.42 150.453 604.33 150.559 604.151 150.559C603.908 150.559 603.54 150.555 603.048 150.547C602.555 150.54 602.187 150.536 601.945 150.536C601.765 150.536 601.675 150.437 601.675 150.239C601.675 149.598 601.683 148.633 601.698 147.344C601.722 146.054 601.733 145.085 601.733 144.436C601.733 142.483 601.553 140.912 601.194 139.726C601.178 139.662 601.17 139.615 601.17 139.583C601.17 139.488 601.221 139.421 601.323 139.382C601.612 139.35 602.019 139.302 602.543 139.239C603.388 139.081 603.779 139.002 603.716 139.002C603.842 139.002 603.924 139.235 603.963 139.702C604.002 140.169 604.072 140.402 604.174 140.402C604.19 140.402 604.209 140.394 604.233 140.378C604.553 140.173 604.874 139.967 605.195 139.761C605.547 139.548 605.907 139.389 606.274 139.287C606.579 139.192 606.971 139.144 607.448 139.144C608.058 139.144 608.363 139.227 608.363 139.393Z" fill="black"/>
<path d="M620.284 144.757C620.284 146.41 619.749 147.822 618.677 148.993C617.582 150.203 616.225 150.809 614.605 150.809C612.978 150.809 611.617 150.207 610.522 149.005C609.45 147.842 608.914 146.434 608.914 144.781C608.914 143.127 609.45 141.719 610.522 140.556C611.625 139.37 612.986 138.776 614.605 138.776C616.217 138.776 617.57 139.37 618.665 140.556C619.745 141.711 620.284 143.111 620.284 144.757ZM617.809 144.781C617.809 143.815 617.515 142.993 616.929 142.312C616.318 141.593 615.544 141.233 614.605 141.233C613.667 141.233 612.888 141.589 612.27 142.301C611.684 142.989 611.39 143.815 611.39 144.781C611.39 145.73 611.688 146.553 612.282 147.249C612.908 147.984 613.682 148.352 614.605 148.352C615.536 148.352 616.311 147.984 616.929 147.249C617.515 146.553 617.809 145.73 617.809 144.781Z" fill="black"/>
<path d="M637.697 142.028C637.697 143.515 637.615 144.448 637.451 144.828C637.232 145.35 636.653 146.39 635.714 147.949C634.697 149.634 634.083 150.504 633.872 150.559C633.81 150.575 633.497 150.583 632.933 150.583C632.55 150.583 632.327 150.575 632.265 150.559C632.022 150.496 631.091 149.135 629.472 146.477C629.026 147.221 628.576 147.969 628.123 148.72C627.387 149.891 626.918 150.504 626.715 150.559C626.652 150.575 626.394 150.583 625.94 150.583C625.479 150.583 625.217 150.575 625.154 150.559C624.911 150.504 624.297 149.642 623.312 147.973C622.381 146.398 621.818 145.35 621.622 144.828C621.442 144.353 621.352 143.42 621.352 142.028C621.352 140.865 621.391 140.07 621.47 139.643C621.509 139.469 621.606 139.382 621.763 139.382C621.998 139.382 622.35 139.389 622.819 139.405C623.288 139.421 623.64 139.429 623.875 139.429C624.024 139.429 624.098 139.552 624.098 139.797C624.098 139.971 624.09 140.236 624.074 140.592C624.059 140.94 624.051 141.201 624.051 141.375C624.051 142.751 624.09 143.725 624.168 144.294C624.239 144.792 624.853 145.837 626.011 147.427C626.151 147.617 626.233 147.712 626.257 147.712C626.28 147.712 626.351 147.624 626.468 147.45C627.485 145.955 628.064 144.935 628.205 144.389C628.299 144.009 628.346 143.159 628.346 141.838C628.346 141.569 628.33 141.169 628.299 140.639C628.267 140.109 628.252 139.714 628.252 139.453C628.252 139.279 628.322 139.192 628.463 139.192H630.704C630.829 139.192 630.892 139.295 630.892 139.5C630.892 139.753 630.88 140.137 630.857 140.651C630.833 141.157 630.821 141.537 630.821 141.79C630.821 143.191 630.845 144.001 630.892 144.223C630.939 144.436 631.306 145.057 631.995 146.086C632.683 147.106 633.078 147.617 633.18 147.617C633.203 147.617 633.274 147.522 633.391 147.332C634.385 145.805 634.92 144.785 634.999 144.27C635.069 143.843 635.104 143.119 635.104 142.099C635.104 141.798 635.081 141.367 635.034 140.805C634.987 140.236 634.963 139.828 634.963 139.583C634.963 139.465 635.042 139.405 635.198 139.405C635.433 139.405 635.781 139.397 636.242 139.382C636.704 139.366 637.052 139.358 637.287 139.358C637.459 139.358 637.564 139.437 637.603 139.595C637.666 139.904 637.697 140.714 637.697 142.028Z" fill="black"/>
<path d="M644.972 146.881C644.972 148.06 644.507 149.005 643.576 149.717C642.731 150.366 641.702 150.69 640.49 150.69C640.021 150.69 639.755 150.678 639.692 150.654C639.559 150.591 639.493 150.397 639.493 150.073C639.493 149.899 639.469 149.638 639.422 149.29C639.383 148.942 639.364 148.685 639.364 148.518C639.364 148.416 639.434 148.348 639.575 148.317C639.676 148.293 639.821 148.293 640.009 148.317C640.251 148.34 640.369 148.352 640.361 148.352C641.839 148.352 642.579 147.893 642.579 146.976C642.579 146.541 642.254 146.141 641.605 145.777C640.549 145.192 639.942 144.832 639.786 144.698C639.137 144.136 638.812 143.4 638.812 142.49C638.812 141.304 639.254 140.378 640.138 139.714C640.936 139.12 641.945 138.824 643.165 138.824C643.275 138.824 643.353 138.875 643.4 138.978C643.455 139.081 643.553 139.401 643.693 139.939C643.842 140.477 643.916 140.801 643.916 140.912C643.916 140.999 643.842 141.055 643.693 141.078C643.193 141.15 642.688 141.217 642.18 141.28C641.577 141.446 641.276 141.778 641.276 142.277C641.276 142.633 641.593 142.993 642.227 143.357C643.165 143.887 643.76 144.27 644.01 144.508C644.652 145.125 644.972 145.916 644.972 146.881Z" fill="black"/>
<path d="M662.608 144.164C662.608 144.749 662.358 145.141 661.857 145.338C661.521 145.465 659.1 145.698 654.594 146.038C654.696 146.735 655.075 147.328 655.732 147.818C656.358 148.285 657.031 148.518 657.75 148.518C658.986 148.518 660.121 148.115 661.153 147.308C661.278 147.205 661.403 147.102 661.529 147C661.591 147 661.63 147.007 661.646 147.023C661.669 147.039 661.818 147.316 662.092 147.854C662.366 148.384 662.503 148.669 662.503 148.708C662.503 148.756 662.44 148.847 662.315 148.981C661.165 150.215 659.69 150.832 657.891 150.832C656.076 150.832 654.629 150.286 653.55 149.195C652.47 148.095 651.93 146.632 651.93 144.804C651.93 143.175 652.447 141.755 653.479 140.544C654.567 139.287 655.9 138.658 657.48 138.658C658.951 138.658 660.179 139.204 661.165 140.295C662.127 141.355 662.608 142.645 662.608 144.164ZM659.815 143.44C659.815 142.783 659.557 142.202 659.041 141.695C658.533 141.189 657.958 140.936 657.316 140.936C656.597 140.936 655.955 141.229 655.392 141.814C654.836 142.399 654.559 143.056 654.559 143.784C654.559 143.95 654.7 144.033 654.981 144.033C656.139 144.033 657.523 143.914 659.135 143.677C659.589 143.614 659.815 143.535 659.815 143.44Z" fill="black"/>
<path d="M674.389 142.68C674.389 143.796 674.354 144.444 674.283 144.626C674.166 144.982 673.532 146.023 672.382 147.747C671.201 149.511 670.497 150.441 670.27 150.536C670.161 150.583 669.832 150.607 669.285 150.607C668.761 150.607 668.416 150.583 668.252 150.536C668.033 150.464 667.317 149.571 666.105 147.854C664.924 146.185 664.263 145.168 664.122 144.804C663.934 144.306 663.84 143.535 663.84 142.49C663.84 142.166 663.848 141.68 663.864 141.031C663.879 140.382 663.887 139.896 663.887 139.571C663.887 139.397 663.973 139.31 664.145 139.31C664.403 139.31 664.787 139.322 665.295 139.346C665.811 139.37 666.199 139.382 666.457 139.382C666.598 139.382 666.668 139.461 666.668 139.619C666.668 139.872 666.652 140.248 666.621 140.746C666.59 141.237 666.574 141.608 666.574 141.862C666.574 142.589 666.613 143.254 666.691 143.855C666.731 144.156 667.126 144.891 667.877 146.062C668.635 147.233 669.105 147.818 669.285 147.818C669.457 147.818 669.883 147.245 670.564 146.098C671.236 144.974 671.596 144.266 671.643 143.974C671.706 143.578 671.737 142.898 671.737 141.933C671.737 141.672 671.71 141.28 671.655 140.758C671.608 140.236 671.584 139.844 671.584 139.583C671.584 139.465 671.643 139.405 671.76 139.405C672.019 139.405 672.398 139.393 672.899 139.37C673.399 139.338 673.775 139.322 674.025 139.322C674.268 139.322 674.389 140.442 674.389 142.68Z" fill="black"/>
<path d="M686.357 144.164C686.357 144.749 686.107 145.141 685.606 145.338C685.27 145.465 682.849 145.698 678.343 146.038C678.445 146.735 678.824 147.328 679.481 147.818C680.107 148.285 680.78 148.518 681.499 148.518C682.735 148.518 683.87 148.115 684.902 147.308C685.027 147.205 685.153 147.102 685.278 147C685.34 147 685.379 147.007 685.395 147.023C685.419 147.039 685.567 147.316 685.841 147.854C686.115 148.384 686.252 148.669 686.252 148.708C686.252 148.756 686.189 148.847 686.064 148.981C684.914 150.215 683.439 150.832 681.64 150.832C679.825 150.832 678.378 150.286 677.299 149.195C676.219 148.095 675.68 146.632 675.68 144.804C675.68 143.175 676.196 141.755 677.228 140.544C678.316 139.287 679.649 138.658 681.23 138.658C682.7 138.658 683.928 139.204 684.914 140.295C685.876 141.355 686.357 142.645 686.357 144.164ZM683.565 143.44C683.565 142.783 683.306 142.202 682.79 141.695C682.282 141.189 681.707 140.936 681.065 140.936C680.346 140.936 679.704 141.229 679.141 141.814C678.586 142.399 678.308 143.056 678.308 143.784C678.308 143.95 678.449 144.033 678.73 144.033C679.888 144.033 681.273 143.914 682.884 143.677C683.338 143.614 683.565 143.535 683.565 143.44Z" fill="black"/>
<path d="M694.723 139.393C694.723 140.264 694.665 141.055 694.547 141.767C694.524 141.949 694.446 142.04 694.313 142.04C694.148 142.04 693.898 142.024 693.562 141.992C693.233 141.953 692.983 141.933 692.811 141.933C691.825 141.933 691.195 142.214 690.922 142.775C690.757 143.115 690.675 143.823 690.675 144.899V146.205C690.675 146.648 690.691 147.32 690.722 148.222C690.761 149.124 690.781 149.796 690.781 150.239C690.781 150.453 690.691 150.559 690.511 150.559C690.269 150.559 689.901 150.555 689.408 150.547C688.915 150.54 688.548 150.536 688.305 150.536C688.125 150.536 688.035 150.437 688.035 150.239C688.035 149.598 688.043 148.633 688.059 147.344C688.082 146.054 688.094 145.085 688.094 144.436C688.094 142.483 687.914 140.912 687.554 139.726C687.538 139.662 687.531 139.615 687.531 139.583C687.531 139.488 687.581 139.421 687.683 139.382C687.973 139.35 688.379 139.302 688.903 139.239C689.748 139.081 690.139 139.002 690.077 139.002C690.202 139.002 690.284 139.235 690.323 139.702C690.362 140.169 690.433 140.402 690.534 140.402C690.55 140.402 690.57 140.394 690.593 140.378C690.914 140.173 691.235 139.967 691.555 139.761C691.907 139.548 692.267 139.389 692.635 139.287C692.94 139.192 693.331 139.144 693.808 139.144C694.418 139.144 694.723 139.227 694.723 139.393Z" fill="black"/>
<path d="M705.894 142.277C705.894 143.614 705.855 144.421 705.777 144.698C705.675 145.054 704.705 146.608 702.867 149.361C701.036 152.106 699.949 153.641 699.605 153.965C699.292 154.25 698.283 154.392 696.577 154.392C696.374 154.392 696.241 154.368 696.178 154.321C696.124 154.281 695.991 153.997 695.779 153.467C695.576 152.937 695.474 152.62 695.474 152.517C695.474 152.343 695.682 152.256 696.096 152.256C696.972 152.256 697.618 152.13 698.032 151.877C698.173 151.789 698.384 151.517 698.666 151.058C698.955 150.599 699.1 150.29 699.1 150.132C699.1 149.919 698.533 149.084 697.399 147.628C696.202 146.086 695.533 145.109 695.392 144.698C695.283 144.373 695.228 143.598 695.228 142.372C695.228 142.071 695.232 141.62 695.24 141.019C695.248 140.41 695.251 139.951 695.251 139.643C695.251 139.469 695.345 139.382 695.533 139.382C695.783 139.382 696.151 139.397 696.636 139.429C697.129 139.461 697.5 139.476 697.751 139.476C697.876 139.476 697.938 139.56 697.938 139.726C697.938 139.947 697.927 140.279 697.903 140.722C697.88 141.165 697.868 141.498 697.868 141.719C697.868 142.684 697.899 143.404 697.962 143.879C698.009 144.179 698.435 144.927 699.241 146.121C700.047 147.316 700.543 147.913 700.731 147.913C700.864 147.913 701.287 147.328 701.998 146.157C702.71 144.978 703.09 144.251 703.137 143.974C703.199 143.578 703.23 142.858 703.23 141.814C703.23 141.585 703.207 141.248 703.16 140.805C703.113 140.355 703.09 140.018 703.09 139.797C703.09 139.599 703.152 139.5 703.277 139.5C703.528 139.5 703.903 139.484 704.404 139.453C704.912 139.413 705.292 139.393 705.542 139.393C705.777 139.393 705.894 140.355 705.894 142.277Z" fill="black"/>
<path d="M724.75 133.982C724.75 135.003 724.703 136.534 724.609 138.575C724.523 140.608 724.48 142.13 724.48 143.143C724.48 146.268 724.547 148.633 724.68 150.239L724.691 150.393C724.699 150.472 724.594 150.524 724.375 150.547C724.226 150.563 724.015 150.563 723.741 150.547C723.412 150.524 723.26 150.512 723.283 150.512C723.166 150.512 722.994 150.524 722.767 150.547C722.54 150.571 722.368 150.583 722.251 150.583C722.141 150.583 722.075 150.31 722.051 149.764C722.036 149.211 722.008 148.93 721.969 148.922C721.922 148.946 721.864 148.997 721.793 149.076C720.722 150.247 719.489 150.832 718.097 150.832C716.517 150.832 715.218 150.223 714.201 149.005C713.239 147.858 712.758 146.473 712.758 144.852C712.758 143.167 713.243 141.751 714.213 140.604C715.23 139.401 716.556 138.8 718.191 138.8C719.177 138.8 720.037 139.093 720.772 139.678C721.109 139.971 721.441 140.268 721.77 140.568C721.832 140.544 721.864 140.489 721.864 140.402V136.557C721.864 136.296 721.852 135.901 721.828 135.371C721.805 134.841 721.793 134.441 721.793 134.172C721.793 133.982 721.856 133.888 721.981 133.888C722.27 133.888 722.701 133.864 723.272 133.816C723.843 133.761 724.269 133.733 724.551 133.733C724.684 133.733 724.75 133.816 724.75 133.982ZM721.817 144.781C721.817 143.831 721.527 142.997 720.948 142.277C720.33 141.51 719.564 141.126 718.649 141.126C717.686 141.126 716.892 141.506 716.267 142.265C715.672 142.977 715.375 143.831 715.375 144.828C715.375 145.777 715.684 146.604 716.302 147.308C716.935 148.052 717.718 148.423 718.649 148.423C719.587 148.423 720.362 148.048 720.972 147.296C721.535 146.592 721.817 145.754 721.817 144.781Z" fill="black"/>
<path d="M738.256 139.797C738.256 139.828 738.244 139.9 738.22 140.01C737.915 141.822 737.763 143.384 737.763 144.698C737.763 144.777 737.861 146.553 738.056 150.025L738.068 150.192C738.076 150.421 737.97 150.536 737.751 150.536C737.54 150.536 737.215 150.559 736.777 150.607C736.347 150.662 736.026 150.69 735.815 150.69C735.666 150.69 735.553 150.413 735.475 149.859C735.397 149.306 735.322 149.029 735.252 149.029C735.205 149.029 734.994 149.183 734.618 149.491C734.157 149.871 733.726 150.16 733.327 150.358C732.71 150.674 732.092 150.832 731.474 150.832C729.956 150.832 728.677 150.219 727.637 148.993C726.651 147.822 726.158 146.458 726.158 144.899C726.158 143.143 726.655 141.691 727.648 140.544C728.689 139.35 730.058 138.753 731.755 138.753C732.952 138.753 733.996 139.172 734.888 140.01C735.021 140.169 735.228 140.398 735.51 140.699C735.533 140.722 735.557 140.734 735.58 140.734C735.627 140.734 735.694 140.485 735.78 139.987C735.866 139.488 735.975 139.239 736.108 139.239C736.32 139.239 736.715 139.298 737.293 139.417C737.935 139.56 738.256 139.686 738.256 139.797ZM735.264 144.757C735.264 143.784 734.978 142.949 734.407 142.253C733.805 141.502 733.034 141.126 732.095 141.126C731.157 141.126 730.374 141.498 729.749 142.241C729.146 142.953 728.845 143.792 728.845 144.757C728.845 145.714 729.146 146.545 729.749 147.249C730.374 147.984 731.157 148.352 732.095 148.352C733.011 148.352 733.777 147.977 734.395 147.225C734.974 146.521 735.264 145.698 735.264 144.757Z" fill="black"/>
<path d="M750.06 142.277C750.06 143.614 750.021 144.421 749.942 144.698C749.841 145.054 748.871 146.608 747.033 149.361C745.202 152.106 744.115 153.641 743.771 153.965C743.458 154.25 742.449 154.392 740.743 154.392C740.54 154.392 740.407 154.368 740.344 154.321C740.29 154.281 740.157 153.997 739.945 153.467C739.742 152.937 739.64 152.62 739.64 152.517C739.64 152.343 739.848 152.256 740.262 152.256C741.138 152.256 741.784 152.13 742.198 151.877C742.339 151.789 742.55 151.517 742.832 151.058C743.121 150.599 743.266 150.29 743.266 150.132C743.266 149.919 742.699 149.084 741.565 147.628C740.368 146.086 739.699 145.109 739.558 144.698C739.449 144.373 739.394 143.598 739.394 142.372C739.394 142.071 739.398 141.62 739.406 141.019C739.413 140.41 739.417 139.951 739.417 139.643C739.417 139.469 739.511 139.382 739.699 139.382C739.949 139.382 740.317 139.397 740.802 139.429C741.295 139.461 741.666 139.476 741.917 139.476C742.042 139.476 742.104 139.56 742.104 139.726C742.104 139.947 742.093 140.279 742.069 140.722C742.046 141.165 742.034 141.498 742.034 141.719C742.034 142.684 742.065 143.404 742.128 143.879C742.175 144.179 742.601 144.927 743.407 146.121C744.213 147.316 744.709 147.913 744.897 147.913C745.03 147.913 745.452 147.328 746.164 146.157C746.876 144.978 747.255 144.251 747.302 143.974C747.365 143.578 747.396 142.858 747.396 141.814C747.396 141.585 747.373 141.248 747.326 140.805C747.279 140.355 747.255 140.018 747.255 139.797C747.255 139.599 747.318 139.5 747.443 139.5C747.694 139.5 748.069 139.484 748.57 139.453C749.078 139.413 749.457 139.393 749.708 139.393C749.942 139.393 750.06 140.355 750.06 142.277Z" fill="black"/>
<path d="M207.869 107.032C207.931 107.728 207.54 108.076 206.695 108.076C206.226 108.076 205.084 107.633 203.269 106.747C201.486 105.83 200.344 105.181 199.843 104.801C194.086 108.757 187.264 110.734 179.379 110.734C170.18 110.734 162.608 107.254 156.663 100.292C151.03 93.7105 148.214 85.689 148.214 76.2278C148.214 66.5451 150.984 58.4129 156.522 51.8312C162.373 44.8697 169.992 41.389 179.379 41.389C184.198 41.389 188.829 42.544 193.272 44.8539C197.746 47.1322 201.314 50.2648 203.973 54.2518C204.38 54.8531 204.583 55.3119 204.583 55.6283C204.583 56.0713 203.457 57.5427 201.204 60.0425C198.982 62.5106 197.7 63.7447 197.355 63.7447C197.105 63.7447 196.151 62.7796 194.492 60.8494C192.49 58.5078 190.581 56.72 188.766 55.4859C185.919 53.5557 182.946 52.5906 179.849 52.5906C173.935 52.5906 169.085 55.0904 165.299 60.0899C161.857 64.6465 160.136 70.0258 160.136 76.2278C160.136 82.2716 161.904 87.6192 165.44 92.2707C169.288 97.3019 174.122 99.8176 179.942 99.8176C185.669 99.8176 190.925 98.2354 195.713 95.0711C195.65 94.2168 195.384 91.2107 194.915 86.0529C194.539 82.3823 194.352 79.3921 194.352 77.0822C194.352 76.5442 194.696 76.2753 195.384 76.2753C195.979 76.2753 196.87 76.3227 198.059 76.4177C199.248 76.4809 200.14 76.5126 200.735 76.5126C201.329 76.5126 202.237 76.4809 203.457 76.4177C204.677 76.3544 205.585 76.3227 206.179 76.3227C206.836 76.3227 207.165 76.829 207.165 77.8416C207.165 78.9491 207.118 80.6262 207.024 82.8728C206.961 85.0878 206.93 86.7491 206.93 87.8566C206.93 92.4131 207.227 98.5835 207.822 106.368L207.869 107.032Z" fill="black"/>
<path d="M242.038 64.7889C242.038 68.2696 241.803 71.4339 241.333 74.2818C241.24 75.0096 240.927 75.3734 240.395 75.3734C239.738 75.3734 238.736 75.3102 237.391 75.1836C236.077 75.0254 235.075 74.9463 234.387 74.9463C230.445 74.9463 227.926 76.0696 226.831 78.3162C226.173 79.6769 225.845 82.5089 225.845 86.8123V92.0334C225.845 93.8054 225.907 96.4951 226.033 100.102C226.189 103.71 226.267 106.399 226.267 108.171C226.267 109.026 225.907 109.453 225.188 109.453C224.218 109.453 222.747 109.437 220.776 109.405C218.805 109.374 217.334 109.358 216.364 109.358C215.644 109.358 215.285 108.962 215.285 108.171C215.285 105.608 215.316 101.748 215.378 96.59C215.472 91.4322 215.519 87.5559 215.519 84.9612C215.519 77.1454 214.8 70.8643 213.36 66.1179C213.298 65.8648 213.266 65.6749 213.266 65.5483C213.266 65.1686 213.47 64.8997 213.876 64.7414C215.034 64.6149 216.661 64.425 218.758 64.1719C222.137 63.539 223.702 63.2226 223.451 63.2226C223.952 63.2226 224.28 64.1561 224.437 66.023C224.593 67.8899 224.875 68.8234 225.282 68.8234C225.344 68.8234 225.422 68.7917 225.516 68.7284C226.799 67.9057 228.082 67.083 229.365 66.2603C230.773 65.4059 232.212 64.7731 233.683 64.3617C234.903 63.982 236.468 63.7922 238.377 63.7922C240.817 63.7922 242.038 64.1244 242.038 64.7889Z" fill="black"/>
<path d="M289.724 86.2428C289.724 92.8561 287.58 98.5044 283.293 103.188C278.913 108.029 273.484 110.45 267.007 110.45C260.499 110.45 255.054 108.045 250.674 103.235C246.387 98.5835 244.243 92.9511 244.243 86.3377C244.243 79.7243 246.387 74.0919 250.674 69.4404C255.085 64.694 260.53 62.3208 267.007 62.3208C273.453 62.3208 278.866 64.694 283.246 69.4404C287.564 74.0603 289.724 79.6611 289.724 86.2428ZM279.82 86.3377C279.82 82.4773 278.647 79.1864 276.3 76.4651C273.859 73.5856 270.762 72.1459 267.007 72.1459C263.252 72.1459 260.139 73.5698 257.667 76.4177C255.32 79.1706 254.147 82.4773 254.147 86.3377C254.147 90.1348 255.336 93.4257 257.714 96.2103C260.217 99.1531 263.315 100.624 267.007 100.624C270.73 100.624 273.828 99.1531 276.3 96.2103C278.647 93.4257 279.82 90.1348 279.82 86.3377Z" fill="black"/>
<path d="M359.375 75.326C359.375 81.2748 359.047 85.0087 358.389 86.5276C357.513 88.616 355.198 92.777 351.443 99.0107C347.375 105.751 344.919 109.231 344.074 109.453C343.824 109.516 342.572 109.548 340.319 109.548C338.786 109.548 337.895 109.516 337.644 109.453C336.674 109.2 332.951 103.757 326.474 93.1251C324.69 96.0995 322.891 99.0898 321.076 102.096C318.135 106.779 316.257 109.231 315.444 109.453C315.194 109.516 314.161 109.548 312.346 109.548C310.5 109.548 309.452 109.516 309.202 109.453C308.232 109.231 305.775 105.782 301.833 99.1056C298.109 92.8087 295.856 88.616 295.074 86.5276C294.354 84.629 293.995 80.8951 293.995 75.326C293.995 70.6745 294.151 67.4944 294.464 65.7857C294.62 65.0895 295.012 64.7414 295.637 64.7414C296.576 64.7414 297.984 64.7731 299.861 64.8364C301.739 64.8997 303.147 64.9313 304.086 64.9313C304.68 64.9313 304.977 65.4218 304.977 66.4027C304.977 67.0988 304.946 68.1589 304.884 69.5828C304.821 70.9751 304.79 72.0193 304.79 72.7154C304.79 78.2213 304.946 82.1134 305.259 84.3917C305.541 86.3852 307.997 90.562 312.628 96.9222C313.191 97.6817 313.52 98.0614 313.613 98.0614C313.707 98.0614 313.989 97.7133 314.458 97.0172C318.526 91.0367 320.841 86.9547 321.405 84.7714C321.78 83.2525 321.968 79.8509 321.968 74.5666C321.968 73.4907 321.905 71.8927 321.78 69.7727C321.655 67.6526 321.592 66.0704 321.592 65.0262C321.592 64.3301 321.874 63.982 322.437 63.982H331.402C331.902 63.982 332.153 64.3934 332.153 65.2161C332.153 66.2287 332.106 67.7633 332.012 69.8201C331.918 71.8453 331.871 73.3641 331.871 74.3767C331.871 79.9775 331.965 83.2209 332.153 84.1069C332.341 84.9612 333.811 87.4452 336.565 91.5588C339.318 95.6407 340.898 97.6817 341.305 97.6817C341.399 97.6817 341.681 97.3019 342.15 96.5425C346.124 90.4354 348.267 86.3535 348.58 84.2967C348.862 82.588 349.002 79.6927 349.002 75.6108C349.002 74.4083 348.909 72.6838 348.721 70.4372C348.533 68.1589 348.439 66.5293 348.439 65.5483C348.439 65.0737 348.752 64.8364 349.378 64.8364C350.317 64.8364 351.709 64.8047 353.555 64.7414C355.401 64.6782 356.794 64.6465 357.732 64.6465C358.421 64.6465 358.843 64.9629 359 65.5958C359.25 66.8299 359.375 70.0733 359.375 75.326Z" fill="black"/>
<path d="M378.712 52.5906C378.712 56.4827 376.569 58.4287 372.282 58.4287C367.933 58.4287 365.758 56.4827 365.758 52.5906C365.758 50.8502 366.431 49.4105 367.776 48.2713C369.028 47.1955 370.53 46.6576 372.282 46.6576C374.034 46.6576 375.536 47.2113 376.788 48.3188C378.071 49.4263 378.712 50.8502 378.712 52.5906ZM378.384 65.4534C378.384 67.8899 378.227 71.5763 377.914 76.5126C377.633 81.4172 377.492 85.1036 377.492 87.5718C377.492 89.8817 377.539 93.3466 377.633 97.9664C377.727 102.555 377.774 105.988 377.774 108.266C377.774 108.931 377.492 109.263 376.929 109.263H367.776C367.119 109.263 366.791 108.614 366.791 107.317C366.791 105.134 366.838 101.859 366.932 97.4918C367.057 93.0934 367.119 89.7868 367.119 87.5718C367.119 85.1036 366.932 81.4014 366.556 76.4651C366.212 71.5288 366.04 67.8266 366.04 65.3585C366.04 64.8206 366.368 64.5516 367.026 64.5516C367.589 64.5516 368.449 64.6307 369.607 64.7889C370.796 64.9471 371.688 65.0262 372.282 65.0262C372.877 65.0262 373.753 64.9471 374.911 64.7889C376.1 64.6307 376.991 64.5516 377.586 64.5516C378.118 64.5516 378.384 64.8522 378.384 65.4534Z" fill="black"/>
<path d="M429.074 108.409C429.074 109.105 428.761 109.453 428.135 109.453C427.102 109.453 425.554 109.437 423.488 109.405C421.455 109.374 419.921 109.358 418.889 109.358C418.326 109.358 418.044 108.899 418.044 107.981C418.044 106.431 418.091 104.074 418.185 100.909C418.279 97.7449 418.326 95.3717 418.326 93.7896C418.326 92.5239 418.31 90.6411 418.279 88.1413C418.247 85.6099 418.232 83.7113 418.232 82.4456C418.232 78.8383 417.715 76.2911 416.683 74.8039C415.431 73.0319 413.116 72.1459 409.736 72.1459C408.172 72.1459 405.997 73.0319 403.212 74.8039C400.271 76.6708 398.801 78.3321 398.801 79.7876V108.266C398.801 109.057 398.503 109.453 397.909 109.453C396.907 109.453 395.406 109.437 393.403 109.405C391.4 109.374 389.899 109.358 388.897 109.358C388.24 109.358 387.912 108.994 387.912 108.266C387.912 105.766 387.943 102.017 388.005 97.0172C388.099 92.0176 388.146 88.2521 388.146 85.7207C388.146 78.9807 387.442 72.7629 386.034 67.0672C385.94 66.7824 385.893 66.5767 385.893 66.4502C385.893 66.1337 386.097 65.9122 386.504 65.7857C386.723 65.754 388.506 65.4692 391.854 64.9313C395.233 64.3617 397.001 64.0769 397.158 64.0769C397.346 64.0769 397.471 64.3301 397.533 64.8364C397.69 66.7982 398.05 68.7759 398.613 70.7694C400.24 69.4721 402.383 67.8583 405.043 65.9281C408.328 63.9029 411.504 62.8903 414.571 62.8903C420.453 62.8903 424.474 64.6149 426.633 68.0639C428.229 70.5954 429.027 74.6931 429.027 80.3572C429.027 81.3381 428.995 82.8412 428.933 84.8663C428.902 86.8914 428.886 88.4103 428.886 89.4229C428.886 91.5429 428.917 94.7072 428.98 98.9157C429.042 103.124 429.074 106.289 429.074 108.409Z" fill="black"/>
<path d="M479.388 65.1212C479.388 68.9183 479.357 74.6298 479.294 82.2558C479.232 89.8501 479.2 95.5458 479.2 99.3429C479.2 106.874 477.604 112.427 474.413 116.003C471.065 119.8 465.714 121.699 458.361 121.699C451.258 121.699 445.517 120.338 441.136 117.617C440.448 117.174 440.103 116.794 440.103 116.478C440.103 116.826 440.573 114.484 441.511 109.453C441.605 108.915 441.824 108.646 442.169 108.646C442.325 108.646 442.528 108.725 442.779 108.883C447.472 111.605 452.181 112.965 456.906 112.965C460.004 112.965 462.57 112.269 464.603 110.877C466.95 109.295 468.124 107 468.124 103.994C468.124 103.33 468.061 101.843 467.936 99.5328C464.463 103.805 460.051 105.94 454.7 105.94C448.912 105.94 444.155 103.836 440.432 99.6277C436.865 95.5774 435.081 90.5937 435.081 84.6764C435.081 78.6643 436.802 73.554 440.244 69.3455C443.905 64.8522 448.661 62.6056 454.512 62.6056C459.675 62.6056 463.774 64.6149 466.809 68.6335C467.31 69.298 467.67 69.6303 467.889 69.6303C468.139 69.6303 468.264 69.3455 468.264 68.7759C468.264 68.3646 468.233 67.7159 468.171 66.8299C468.108 65.9122 468.077 65.2319 468.077 64.7889C468.077 62.8903 468.264 61.9411 468.64 61.9411C468.953 61.9411 470.642 62.2417 473.709 62.8429C476.775 63.4124 478.449 63.7605 478.731 63.8871C479.169 64.0453 479.388 64.4567 479.388 65.1212ZM468.124 84.6764C468.124 81.1324 467.169 78.1264 465.261 75.6582C463.164 72.9686 460.411 71.6238 457 71.6238C453.621 71.6238 450.883 72.9844 448.786 75.7057C446.878 78.1738 445.923 81.1641 445.923 84.6764C445.923 88.1255 446.893 91.0999 448.833 93.5997C450.93 96.321 453.652 97.6817 457 97.6817C460.317 97.6817 463.039 96.321 465.167 93.5997C467.138 91.0999 468.124 88.1255 468.124 84.6764Z" fill="black"/>
<path d="M539.934 98.3935C539.934 98.7732 539.637 99.3111 539.043 100.007C532.941 107.159 525.384 110.734 516.373 110.734C506.986 110.734 499.476 107.269 493.844 100.34C488.587 93.8844 485.959 85.8154 485.959 76.1327C485.959 66.45 488.634 58.3494 493.985 51.831C499.68 44.8063 507.205 41.2939 516.561 41.2939C526.042 41.2939 533.379 44.5373 538.573 51.0241C539.074 51.6886 539.324 52.2424 539.324 52.6854C539.324 53.2233 538.495 54.8213 536.837 57.4793C535.178 60.1056 534.177 61.4188 533.833 61.4188C533.426 61.4188 532.472 60.6435 530.97 59.093C529.124 57.1945 527.387 55.7705 525.76 54.8213C523.069 53.2708 520.096 52.4955 516.842 52.4955C510.647 52.4955 505.828 54.8845 502.386 59.6626C499.32 63.9344 497.787 69.3137 497.787 75.8005C497.787 82.2873 499.304 87.714 502.339 92.0807C505.781 96.9854 510.584 99.4377 516.748 99.4377C519.815 99.4377 522.772 98.6624 525.619 97.1119C527.496 96.0994 529.405 94.6596 531.345 92.7927C532.972 91.2422 533.864 90.4669 534.02 90.4669C534.208 90.4669 535.241 91.7327 537.118 94.2641C538.996 96.7639 539.934 98.1403 539.934 98.3935Z" fill="#589C17"/>
<path d="M587.573 86.2426C587.573 92.856 585.43 98.5042 581.143 103.187C576.763 108.029 571.334 110.449 564.857 110.449C558.348 110.449 552.904 108.045 548.523 103.235C544.237 98.5833 542.093 92.9509 542.093 86.3375C542.093 79.7242 544.237 74.0918 548.523 69.4403C552.935 64.6938 558.38 62.3206 564.857 62.3206C571.303 62.3206 576.716 64.6938 581.096 69.4403C585.414 74.0601 587.573 79.6609 587.573 86.2426ZM577.67 86.3375C577.67 82.4771 576.497 79.1863 574.15 76.465C571.709 73.5855 568.612 72.1457 564.857 72.1457C561.102 72.1457 557.989 73.5697 555.517 76.4175C553.17 79.1704 551.997 82.4771 551.997 86.3375C551.997 90.1347 553.186 93.4255 555.564 96.2101C558.067 99.1529 561.165 100.624 564.857 100.624C568.58 100.624 571.678 99.1529 574.15 96.2101C576.497 93.4255 577.67 90.1347 577.67 86.3375Z" fill="#589C17"/>
<path d="M639.343 43.145C639.343 47.227 639.155 53.3499 638.779 61.5137C638.435 69.6459 638.263 75.7372 638.263 79.7875C638.263 92.2864 638.529 101.748 639.061 108.171L639.108 108.788C639.139 109.105 638.717 109.31 637.841 109.405C637.246 109.468 636.401 109.468 635.306 109.405C633.992 109.31 633.382 109.263 633.476 109.263C633.006 109.263 632.318 109.31 631.411 109.405C630.503 109.5 629.815 109.548 629.346 109.548C628.907 109.548 628.641 108.456 628.548 106.273C628.485 104.058 628.376 102.934 628.219 102.903C628.031 102.998 627.797 103.203 627.515 103.52C623.228 108.203 618.3 110.544 612.731 110.544C606.41 110.544 601.216 108.108 597.148 103.235C593.299 98.6466 591.375 93.1091 591.375 86.6223C591.375 79.8824 593.315 74.2183 597.195 69.6301C601.263 64.8204 606.566 62.4155 613.106 62.4155C617.049 62.4155 620.49 63.5863 623.432 65.9279C624.777 67.0987 626.107 68.2853 627.421 69.4877C627.672 69.3928 627.797 69.1713 627.797 68.8232V53.4448C627.797 52.4006 627.75 50.8184 627.656 48.6984C627.562 46.5783 627.515 44.9803 627.515 43.9045C627.515 43.145 627.765 42.7653 628.266 42.7653C629.424 42.7653 631.145 42.6704 633.429 42.4805C635.713 42.259 637.418 42.1483 638.545 42.1483C639.077 42.1483 639.343 42.4805 639.343 43.145ZM627.609 86.3375C627.609 82.5404 626.451 79.2021 624.136 76.3226C621.664 73.2532 618.597 71.7185 614.936 71.7185C611.088 71.7185 607.912 73.2374 605.409 76.2751C603.031 79.123 601.842 82.5404 601.842 86.5274C601.842 90.3245 603.078 93.6312 605.549 96.4474C608.084 99.4219 611.213 100.909 614.936 100.909C618.691 100.909 621.789 99.406 624.23 96.4C626.482 93.5838 627.609 90.2296 627.609 86.3375Z" fill="#589C17"/>
<path d="M687.498 83.8694C687.498 86.211 686.497 87.7773 684.494 88.5684C683.149 89.0747 673.464 90.0081 655.441 91.3688C655.848 94.1533 657.366 96.5265 659.994 98.4884C662.497 100.355 665.188 101.289 668.067 101.289C673.011 101.289 677.548 99.675 681.678 96.4474C682.179 96.0361 682.679 95.6247 683.18 95.2134C683.43 95.2134 683.587 95.245 683.649 95.3083C683.743 95.3716 684.338 96.4791 685.433 98.6308C686.528 100.751 687.076 101.89 687.076 102.048C687.076 102.238 686.825 102.602 686.325 103.14C681.725 108.076 675.827 110.544 668.63 110.544C661.371 110.544 655.582 108.361 651.264 103.994C646.946 99.5959 644.787 93.742 644.787 86.4325C644.787 79.914 646.852 74.2342 650.983 69.3928C655.332 64.3616 660.667 61.846 666.987 61.846C672.87 61.846 677.782 64.0293 681.725 68.396C685.574 72.6362 687.498 77.794 687.498 83.8694ZM676.327 80.9741C676.327 78.3477 675.295 76.022 673.23 73.9968C671.196 71.9717 668.896 70.9591 666.33 70.9591C663.452 70.9591 660.886 72.1299 658.633 74.4715C656.411 76.813 655.301 79.4394 655.301 82.3505C655.301 83.015 655.864 83.3473 656.99 83.3473C661.621 83.3473 667.16 82.8727 673.605 81.9234C675.42 81.6702 676.327 81.3538 676.327 80.9741Z" fill="#589C17"/>
<path d="M720.963 64.7888C720.963 68.2695 720.728 71.4338 720.259 74.2816C720.165 75.0094 719.852 75.3733 719.32 75.3733C718.663 75.3733 717.662 75.31 716.316 75.1834C715.002 75.0252 714.001 74.9461 713.312 74.9461C709.37 74.9461 706.851 76.0694 705.756 78.3161C705.099 79.6767 704.77 82.5088 704.77 86.8122V92.0333C704.77 93.8053 704.833 96.4949 704.958 100.102C705.114 103.709 705.193 106.399 705.193 108.171C705.193 109.025 704.833 109.453 704.113 109.453C703.143 109.453 701.672 109.437 699.701 109.405C697.73 109.374 696.259 109.358 695.289 109.358C694.57 109.358 694.21 108.962 694.21 108.171C694.21 105.608 694.241 101.748 694.304 96.5898C694.397 91.432 694.444 87.5558 694.444 84.9611C694.444 77.1453 693.725 70.8642 692.285 66.1178C692.223 65.8646 692.192 65.6748 692.192 65.5482C692.192 65.1685 692.395 64.8995 692.802 64.7413C693.959 64.6147 695.587 64.4249 697.683 64.1717C701.062 63.5389 702.627 63.2224 702.376 63.2224C702.877 63.2224 703.206 64.1559 703.362 66.0228C703.519 67.8898 703.8 68.8232 704.207 68.8232C704.269 68.8232 704.348 68.7916 704.442 68.7283C705.724 67.9056 707.007 67.0829 708.29 66.2601C709.698 65.4058 711.138 64.7729 712.608 64.3616C713.829 63.9819 715.393 63.792 717.302 63.792C719.742 63.792 720.963 64.1243 720.963 64.7888Z" fill="#589C17"/>
<path d="M748.091 94.7387C748.091 99.4535 746.229 103.235 742.506 106.083C739.127 108.677 735.012 109.975 730.162 109.975C728.285 109.975 727.221 109.927 726.97 109.832C726.438 109.579 726.173 108.804 726.173 107.507C726.173 106.81 726.079 105.766 725.891 104.374C725.734 102.982 725.656 101.953 725.656 101.289C725.656 100.877 725.938 100.608 726.501 100.482C726.908 100.387 727.487 100.387 728.238 100.482C729.208 100.577 729.677 100.624 729.646 100.624C735.56 100.624 738.516 98.789 738.516 95.1184C738.516 93.3781 737.218 91.7801 734.621 90.3245C730.397 87.983 727.972 86.5432 727.346 86.0053C724.749 83.7587 723.45 80.8159 723.45 77.1769C723.45 72.4305 725.218 68.7283 728.754 66.0703C731.946 63.6971 735.982 62.5105 740.863 62.5105C741.301 62.5105 741.614 62.7161 741.802 63.1275C742.021 63.5389 742.412 64.8204 742.975 66.9721C743.57 69.1238 743.867 70.4212 743.867 70.8642C743.867 71.2123 743.57 71.4338 742.975 71.5287C740.973 71.8135 738.954 72.0824 736.921 72.3356C734.511 73.0001 733.307 74.3291 733.307 76.3226C733.307 77.7465 734.574 79.1863 737.108 80.6418C740.863 82.7619 743.241 84.2966 744.242 85.2459C746.808 87.714 748.091 90.8783 748.091 94.7387Z" fill="#589C17"/>
<path fill-rule="evenodd" clip-rule="evenodd" d="M65.0949 0L130.13 37.9714V113.914L65.0949 151.886L0.0598145 113.914V37.9714L65.0949 0Z" fill="#589C17"/>
<path d="M61.1774 149.598C61.4169 146.699 62.1779 143.738 62.9627 140.984L63.069 140.637C63.4332 139.333 63.9062 138.025 64.3868 136.633C66.0258 132.043 67.5295 127.381 65.7652 123.17C62.2242 114.781 56.848 109.379 55.6693 108.258C52.6783 108.71 49.571 108.854 46.6774 108.211C42.3079 107.16 38.7706 105.125 35.2738 102.333C34.5921 101.787 31.9021 99.614 32.1639 98.6778C32.5623 97.2543 34.6313 95.6275 36.3475 94.667C45.4595 89.8761 57.8471 95.9638 59.9743 106.057C57.3412 103.224 52.3824 100.884 46.2221 101.211C53.8431 103.058 56.9682 106.258 57.8686 107.387C62.4859 112.481 66.0676 117.995 67.7508 122.548C68.2833 120.11 69.032 117.545 69.811 114.867C72.2632 106.419 75.0152 97.5562 71.4298 90.5846C66.519 81.0232 61.0986 77.093 60.9709 77.0163C57.9913 77.4613 54.8953 77.5764 52.0106 76.9229C47.6487 75.8525 44.1126 73.7959 40.6285 70.9898C39.9505 70.4387 37.2782 68.2542 37.5489 67.3129C37.9511 65.8971 40.0315 64.2792 41.7363 63.3303C50.8787 58.5828 63.2321 64.7282 65.3151 74.8344C62.6896 71.9862 57.7535 69.6214 51.5844 69.9206C56.7228 71.1907 59.8023 73.063 61.5438 74.4929V74.4967C61.9067 74.7986 62.2204 75.0812 62.4784 75.3344C64.5347 77.2311 72.7792 85.0788 74.0414 91.9352C75.6109 80.3019 75.5438 69.6623 73.8466 60.2762C73.2965 57.2962 72.6237 54.324 71.7688 50.9194C71.7535 50.8644 71.7321 50.8209 71.7144 50.7698C67.7483 49.8745 63.8164 48.5201 60.4878 46.3255C55.3354 42.793 51.7323 38.3883 48.5491 33.0218C47.9282 31.9693 45.5038 27.828 46.298 26.7346C47.5083 25.0924 50.9875 24.0091 53.6648 23.6088C67.8242 21.9334 80.944 35.998 78.7915 50.1546C76.7541 45.1667 71.469 39.657 63.3067 37.0185C69.878 41.5447 72.9816 45.8164 74.4119 48.5278C74.4119 48.5278 76.4961 52.3288 78.4425 59.2261C81.1818 68.9525 81.436 78.9423 81.0262 87.0368C84.4914 78.8618 89.9713 73.8458 89.9713 73.8458V73.8496C91.3992 72.4032 95.471 69.5656 101.781 68.0028C95.6266 67.7009 89.8247 70.431 87.1928 73.2766C89.2707 63.1755 101.632 57.0263 110.768 61.7725C112.485 62.7228 114.572 64.3419 114.974 65.7577C115.238 66.7029 112.564 68.8809 111.881 69.4321C108.391 72.2381 104.869 74.2946 100.506 75.3664C97.9274 75.9535 95.1742 75.9113 92.483 75.5851C91.5914 76.1453 81.551 86.3641 79.6464 100.255C78.6423 105.836 77.0905 111.197 75.602 116.371C74.4005 120.554 73.1827 124.809 72.2303 129.204C79.334 114.685 89.1442 110.353 89.1442 110.353C89.1442 110.353 94.0828 108.247 98.3322 107.731C92.2478 106.681 87.0626 108.436 84.1108 110.939C87.3825 101.161 100.388 96.5611 108.897 102.391C110.486 103.542 112.355 105.397 112.585 106.859C112.744 107.822 109.828 109.661 109.087 110.129C105.292 112.488 101.548 114.103 97.0915 114.638C94.2043 114.922 91.2095 114.457 88.3436 113.684C88.0237 113.801 87.6949 113.959 87.3737 114.17C85.0024 115.706 82.8954 117.118 81.0603 118.957C75.9688 124.108 73.576 131.277 71.2578 138.223C71.2578 138.223 68.0429 148.164 71.6836 148.038L65.0946 151.885L61.1774 149.598V149.598Z" fill="white"/>
</svg>
