<svg width="773" height="150" viewBox="0 0 773 150" fill="none" xmlns="http://www.w3.org/2000/svg">
<path d="M183.96 98.344C177.432 98.344 171.64 96.904 166.584 94.024C161.528 91.144 157.592 87.048 154.776 81.736C151.96 76.424 150.552 70.28 150.552 63.304C150.552 56.392 152.024 50.312 154.968 45.064C157.976 39.752 162.136 35.656 167.448 32.776C172.76 29.896 178.776 28.456 185.496 28.456C188.888 28.456 192.216 28.808 195.48 29.512C198.808 30.216 201.72 31.144 204.216 32.296L203.16 41.896C197.272 39.464 191.448 38.248 185.688 38.248C177.88 38.248 171.992 40.552 168.024 45.16C164.056 49.768 162.072 55.816 162.072 63.304C162.072 70.984 164.056 77.128 168.024 81.736C172.056 86.28 177.912 88.552 185.592 88.552C189.432 88.552 192.888 88.072 195.96 87.112V72.328H185.976V63.304H206.424V93.256C203.8 94.792 200.504 96.04 196.536 97C192.632 97.896 188.44 98.344 183.96 98.344ZM216.416 49.576H225.248L225.92 56.2C230.144 51.144 234.56 48.616 239.168 48.616C239.872 48.616 240.608 48.68 241.376 48.808L240.512 59.272C239.488 59.016 238.336 58.888 237.056 58.888C234.88 58.888 232.832 59.4 230.912 60.424C228.992 61.448 227.616 62.632 226.784 63.976V97H216.416V49.576ZM267.347 97.96C262.419 97.96 258.131 96.872 254.483 94.696C250.899 92.456 248.147 89.48 246.227 85.768C244.371 81.992 243.443 77.832 243.443 73.288C243.443 68.744 244.371 64.616 246.227 60.904C248.147 57.128 250.899 54.152 254.483 51.976C258.131 49.736 262.419 48.616 267.347 48.616C272.211 48.616 276.435 49.736 280.019 51.976C283.667 54.152 286.451 57.128 288.371 60.904C290.291 64.616 291.25 68.744 291.25 73.288C291.25 77.832 290.291 81.992 288.371 85.768C286.451 89.48 283.667 92.456 280.019 94.696C276.435 96.872 272.211 97.96 267.347 97.96ZM267.347 89.416C271.699 89.416 275.059 87.976 277.427 85.096C279.795 82.216 280.979 78.28 280.979 73.288C280.979 68.296 279.795 64.36 277.427 61.48C275.059 58.6 271.699 57.16 267.347 57.16C262.995 57.16 259.635 58.6 257.267 61.48C254.899 64.36 253.715 68.296 253.715 73.288C253.715 78.28 254.899 82.216 257.267 85.096C259.635 87.976 262.995 89.416 267.347 89.416ZM294.681 49.576H305.529L314.169 85.384L323.769 50.824H333.177L342.681 85.384L351.417 49.576H362.265L348.153 97H338.265L328.473 63.688L318.585 97H308.793L294.681 49.576ZM368.948 29.8H378.932V40.36H368.948V29.8ZM368.948 49.576H378.932V97H368.948V49.576ZM414.032 48.712C420.368 48.712 425.072 50.664 428.144 54.568C431.216 58.408 432.752 63.784 432.752 70.696V97H422.768V71.08C422.768 66.28 421.904 62.792 420.176 60.616C418.448 58.376 415.6 57.256 411.632 57.256C409.2 57.256 407.024 57.704 405.104 58.6C403.184 59.496 401.616 60.808 400.4 62.536V97H390.416V49.576H398.96L399.536 53.896C403.824 50.44 408.656 48.712 414.032 48.712ZM462.768 121.096C456.048 121.096 450.64 119.848 446.544 117.352C442.448 114.92 440.4 111.528 440.4 107.176C440.4 102.44 443.056 98.728 448.368 96.04C445.424 94.44 443.952 92.328 443.952 89.704C443.952 86.696 445.712 84.424 449.232 82.888C446.672 81.288 444.72 79.144 443.376 76.456C442.032 73.704 441.36 70.632 441.36 67.24C441.36 63.784 442.128 60.648 443.664 57.832C445.2 55.016 447.44 52.776 450.384 51.112C453.328 49.448 456.816 48.616 460.848 48.616C465.072 48.616 468.816 49.736 472.08 51.976C475.152 50.312 478.864 49.48 483.216 49.48H484.944L483.984 55.912H480.912C479.376 55.912 477.968 56.072 476.688 56.392C479.056 59.464 480.24 63.08 480.24 67.24C480.24 70.76 479.472 73.96 477.936 76.84C476.4 79.72 474.16 81.992 471.216 83.656C468.272 85.32 464.816 86.152 460.848 86.152C458.864 86.152 456.912 85.896 454.992 85.384C453.84 85.768 453.264 86.472 453.264 87.496C453.264 88.264 453.712 88.904 454.608 89.416C455.568 89.928 457.072 90.312 459.12 90.568L469.872 92.2C475.12 92.968 479.12 94.472 481.872 96.712C484.624 98.952 486 102.024 486 105.928C486 110.728 483.92 114.44 479.76 117.064C475.664 119.752 470 121.096 462.768 121.096ZM460.848 78.472C464.048 78.472 466.512 77.48 468.24 75.496C470.032 73.448 470.928 70.728 470.928 67.336C470.928 64.008 470.032 61.352 468.24 59.368C466.512 57.32 464.048 56.296 460.848 56.296C457.584 56.296 455.056 57.32 453.264 59.368C451.536 61.352 450.672 64.008 450.672 67.336C450.672 70.728 451.536 73.448 453.264 75.496C455.056 77.48 457.584 78.472 460.848 78.472ZM463.344 112.84C472.112 112.84 476.496 110.696 476.496 106.408C476.496 104.68 475.792 103.336 474.384 102.376C472.976 101.48 470.736 100.744 467.664 100.168L455.472 98.248C451.376 99.976 449.328 102.376 449.328 105.448C449.328 107.944 450.544 109.8 452.976 111.016C455.472 112.232 458.928 112.84 463.344 112.84Z" fill="black"/>
<path d="M524.728 98.344C518.136 98.344 512.248 96.904 507.064 94.024C501.88 91.144 497.816 87.08 494.872 81.832C491.992 76.52 490.552 70.376 490.552 63.4C490.552 56.424 492.024 50.312 494.968 45.064C497.976 39.752 502.072 35.656 507.256 32.776C512.504 29.896 518.456 28.456 525.112 28.456C528.44 28.456 531.608 28.808 534.616 29.512C537.688 30.216 540.408 31.176 542.776 32.392L541.72 42.184C535.896 39.56 530.328 38.248 525.016 38.248C520.088 38.248 515.896 39.336 512.44 41.512C509.048 43.688 506.456 46.664 504.664 50.44C502.936 54.216 502.072 58.536 502.072 63.4C502.072 68.264 502.936 72.584 504.664 76.36C506.392 80.136 508.952 83.112 512.344 85.288C515.736 87.464 519.864 88.552 524.728 88.552C527.864 88.552 530.776 88.232 533.464 87.592C536.152 86.888 538.904 85.896 541.72 84.616L542.776 94.504C537.08 97.064 531.064 98.344 524.728 98.344ZM571.534 97.96C566.606 97.96 562.318 96.872 558.67 94.696C555.086 92.456 552.334 89.48 550.414 85.768C548.558 81.992 547.63 77.832 547.63 73.288C547.63 68.744 548.558 64.616 550.414 60.904C552.334 57.128 555.086 54.152 558.67 51.976C562.318 49.736 566.606 48.616 571.534 48.616C576.398 48.616 580.622 49.736 584.206 51.976C587.854 54.152 590.638 57.128 592.558 60.904C594.478 64.616 595.438 68.744 595.438 73.288C595.438 77.832 594.478 81.992 592.558 85.768C590.638 89.48 587.854 92.456 584.206 94.696C580.622 96.872 576.398 97.96 571.534 97.96ZM571.534 89.416C575.886 89.416 579.246 87.976 581.614 85.096C583.982 82.216 585.166 78.28 585.166 73.288C585.166 68.296 583.982 64.36 581.614 61.48C579.246 58.6 575.886 57.16 571.534 57.16C567.182 57.16 563.822 58.6 561.454 61.48C559.086 64.36 557.902 68.296 557.902 73.288C557.902 78.28 559.086 82.216 561.454 85.096C563.822 87.976 567.182 89.416 571.534 89.416ZM646.569 25V97H637.353L636.777 92.488C633.257 96.136 628.649 97.96 622.953 97.96C618.729 97.96 614.953 96.872 611.625 94.696C608.297 92.52 605.705 89.544 603.849 85.768C602.057 81.992 601.161 77.864 601.161 73.384C601.161 68.968 602.025 64.872 603.753 61.096C605.545 57.32 608.073 54.312 611.337 52.072C614.665 49.832 618.537 48.712 622.953 48.712C628.585 48.712 633.129 50.408 636.585 53.8V25H646.569ZM624.585 89.416C628.297 89.416 631.337 88.04 633.705 85.288C636.137 82.472 637.353 78.504 637.353 73.384C637.353 68.456 636.137 64.552 633.705 61.672C631.273 58.728 628.233 57.256 624.585 57.256C620.553 57.256 617.353 58.76 614.985 61.768C612.617 64.712 611.433 68.584 611.433 73.384C611.433 77.992 612.617 81.832 614.985 84.904C617.353 87.912 620.553 89.416 624.585 89.416ZM680.7 97.96C675.26 97.96 670.588 96.84 666.684 94.6C662.844 92.36 659.932 89.352 657.948 85.576C656.028 81.8 655.068 77.576 655.068 72.904C655.068 68.488 655.964 64.456 657.756 60.808C659.612 57.096 662.268 54.152 665.724 51.976C669.244 49.8 673.404 48.712 678.204 48.712C684.476 48.712 689.468 50.568 693.18 54.28C696.892 57.928 698.748 62.824 698.748 68.968C698.748 70.632 698.556 72.424 698.172 74.344H665.34C665.98 79.656 667.74 83.496 670.62 85.864C673.564 88.232 677.276 89.416 681.756 89.416C686.812 89.416 691.452 88.328 695.676 86.152L696.636 94.312C691.516 96.744 686.204 97.96 680.7 97.96ZM688.476 67.528C688.476 64.52 687.612 62.056 685.884 60.136C684.156 58.216 681.564 57.256 678.108 57.256C671.644 57.256 667.58 60.68 665.916 67.528H688.476ZM707.166 49.576H715.998L716.67 56.2C720.894 51.144 725.31 48.616 729.918 48.616C730.622 48.616 731.358 48.68 732.126 48.808L731.262 59.272C730.238 59.016 729.086 58.888 727.806 58.888C725.63 58.888 723.582 59.4 721.662 60.424C719.742 61.448 718.366 62.632 717.534 63.976V97H707.166V49.576ZM751.544 97.96C745.528 97.96 740.152 96.68 735.416 94.12L736.472 84.904C738.328 86.248 740.504 87.4 743 88.36C745.496 89.256 748.216 89.704 751.16 89.704C753.912 89.704 756.024 89.256 757.496 88.36C758.968 87.464 759.704 86.12 759.704 84.328C759.704 82.344 758.904 80.84 757.304 79.816C755.768 78.728 753.496 77.704 750.488 76.744C747.416 75.72 744.888 74.728 742.904 73.768C740.92 72.744 739.288 71.336 738.008 69.544C736.728 67.752 736.088 65.448 736.088 62.632C736.088 58.6 737.592 55.272 740.6 52.648C743.672 49.96 748.088 48.616 753.848 48.616C758.84 48.616 763.384 49.736 767.48 51.976L766.424 60.808C764.44 59.336 762.456 58.216 760.472 57.448C758.552 56.616 756.408 56.2 754.04 56.2C751.544 56.2 749.592 56.68 748.184 57.64C746.776 58.6 746.072 60.008 746.072 61.864C746.072 63.208 746.424 64.296 747.128 65.128C747.832 65.96 748.856 66.664 750.2 67.24C751.544 67.816 753.656 68.616 756.536 69.64C760.632 71.048 763.864 72.776 766.232 74.824C768.664 76.872 769.88 79.88 769.88 83.848C769.88 87.944 768.376 91.336 765.368 94.024C762.424 96.648 757.816 97.96 751.544 97.96Z" fill="#589C17"/>
<path d="M415.68 134.832C416.736 135.12 417.536 135.632 418.08 136.368C418.64 137.104 418.92 138.048 418.92 139.2C418.92 140.688 418.44 141.864 417.48 142.728C416.52 143.576 415.2 144 413.52 144H406.896V127.2H412.632C414.2 127.2 415.392 127.544 416.208 128.232C417.04 128.92 417.456 129.936 417.456 131.28C417.456 132.096 417.304 132.808 417 133.416C416.696 134.024 416.256 134.496 415.68 134.832ZM409.512 134.016H412.272C413.104 134.016 413.736 133.848 414.168 133.512C414.6 133.176 414.816 132.6 414.816 131.784C414.816 130.968 414.6 130.392 414.168 130.056C413.736 129.704 413.104 129.528 412.272 129.528H409.512V134.016ZM413.208 141.648C414.136 141.648 414.856 141.44 415.368 141.024C415.88 140.592 416.136 139.928 416.136 139.032C416.136 137.256 415.16 136.368 413.208 136.368H409.512V141.648H413.208ZM426.753 144.24C425.393 144.24 424.225 143.96 423.249 143.4C422.289 142.84 421.561 142.088 421.065 141.144C420.585 140.2 420.345 139.144 420.345 137.976C420.345 136.872 420.569 135.864 421.017 134.952C421.481 134.024 422.145 133.288 423.009 132.744C423.889 132.2 424.929 131.928 426.129 131.928C427.697 131.928 428.945 132.392 429.873 133.32C430.801 134.232 431.265 135.456 431.265 136.992C431.265 137.408 431.217 137.856 431.121 138.336H422.913C423.073 139.664 423.513 140.624 424.233 141.216C424.969 141.808 425.897 142.104 427.017 142.104C428.281 142.104 429.441 141.832 430.497 141.288L430.737 143.328C429.457 143.936 428.129 144.24 426.753 144.24ZM428.697 136.632C428.697 135.88 428.481 135.264 428.049 134.784C427.617 134.304 426.969 134.064 426.105 134.064C424.489 134.064 423.473 134.92 423.057 136.632H428.697ZM438.842 144.24C437.53 144.24 436.41 143.976 435.482 143.448C434.554 142.904 433.85 142.168 433.37 141.24C432.906 140.312 432.674 139.272 432.674 138.12C432.674 136.936 432.906 135.88 433.37 134.952C433.834 134.008 434.538 133.264 435.482 132.72C436.426 132.176 437.586 131.904 438.962 131.904C440.194 131.904 441.266 132.144 442.178 132.624L441.89 134.736C440.994 134.288 440.05 134.064 439.058 134.064C437.842 134.064 436.898 134.424 436.226 135.144C435.57 135.848 435.242 136.824 435.242 138.072C435.242 139.288 435.57 140.264 436.226 141C436.898 141.736 437.834 142.104 439.034 142.104C440.042 142.104 441.002 141.856 441.914 141.36L442.202 143.424C441.818 143.664 441.322 143.856 440.714 144C440.106 144.16 439.482 144.24 438.842 144.24ZM446.932 144.24C445.892 144.24 445.036 143.92 444.364 143.28C443.708 142.64 443.38 141.8 443.38 140.76C443.38 139.72 443.74 138.888 444.46 138.264C445.196 137.64 446.084 137.2 447.124 136.944C448.164 136.672 449.22 136.528 450.292 136.512C450.276 135.6 450.076 134.976 449.692 134.64C449.324 134.288 448.724 134.112 447.892 134.112C447.38 134.112 446.868 134.192 446.356 134.352C445.86 134.496 445.308 134.752 444.7 135.12L444.412 133.08C445.004 132.712 445.652 132.432 446.356 132.24C447.076 132.032 447.812 131.928 448.564 131.928C450.036 131.928 451.108 132.328 451.78 133.128C452.452 133.928 452.788 135.288 452.788 137.208V139.968C452.788 140.592 452.812 141.056 452.86 141.36C452.924 141.664 453.036 141.88 453.196 142.008C453.372 142.136 453.644 142.2 454.012 142.2H454.3L454.012 144.24H453.46C452.628 144.24 451.996 144.112 451.564 143.856C451.148 143.6 450.812 143.2 450.556 142.656C450.124 143.152 449.596 143.544 448.972 143.832C448.348 144.104 447.668 144.24 446.932 144.24ZM447.7 142.272C448.164 142.272 448.628 142.16 449.092 141.936C449.572 141.712 449.972 141.4 450.292 141V138.216C447.412 138.312 445.972 139.12 445.972 140.64C445.972 141.728 446.548 142.272 447.7 142.272ZM465.924 132.144V144H463.644L463.5 142.968C462.732 143.816 461.724 144.24 460.476 144.24C458.908 144.24 457.74 143.776 456.972 142.848C456.204 141.92 455.82 140.576 455.82 138.816V132.144H458.316V138.48C458.316 139.696 458.516 140.6 458.916 141.192C459.332 141.784 459.996 142.08 460.908 142.08C461.436 142.08 461.916 141.984 462.348 141.792C462.78 141.584 463.14 141.288 463.428 140.904V132.144H465.924ZM472.167 144.24C470.663 144.24 469.319 143.92 468.135 143.28L468.399 140.976C468.863 141.312 469.407 141.6 470.031 141.84C470.655 142.064 471.335 142.176 472.071 142.176C472.759 142.176 473.287 142.064 473.655 141.84C474.023 141.616 474.207 141.28 474.207 140.832C474.207 140.336 474.007 139.96 473.607 139.704C473.223 139.432 472.655 139.176 471.903 138.936C471.135 138.68 470.503 138.432 470.007 138.192C469.511 137.936 469.103 137.584 468.783 137.136C468.463 136.688 468.303 136.112 468.303 135.408C468.303 134.4 468.679 133.568 469.431 132.912C470.199 132.24 471.303 131.904 472.743 131.904C473.991 131.904 475.127 132.184 476.151 132.744L475.887 134.952C475.391 134.584 474.895 134.304 474.399 134.112C473.919 133.904 473.383 133.8 472.791 133.8C472.167 133.8 471.679 133.92 471.327 134.16C470.975 134.4 470.799 134.752 470.799 135.216C470.799 135.552 470.887 135.824 471.063 136.032C471.239 136.24 471.495 136.416 471.831 136.56C472.167 136.704 472.695 136.904 473.415 137.16C474.439 137.512 475.247 137.944 475.839 138.456C476.447 138.968 476.751 139.72 476.751 140.712C476.751 141.736 476.375 142.584 475.623 143.256C474.887 143.912 473.735 144.24 472.167 144.24ZM484.526 144.24C483.166 144.24 481.998 143.96 481.022 143.4C480.062 142.84 479.334 142.088 478.838 141.144C478.358 140.2 478.118 139.144 478.118 137.976C478.118 136.872 478.342 135.864 478.79 134.952C479.254 134.024 479.918 133.288 480.782 132.744C481.662 132.2 482.702 131.928 483.902 131.928C485.47 131.928 486.718 132.392 487.646 133.32C488.574 134.232 489.038 135.456 489.038 136.992C489.038 137.408 488.99 137.856 488.894 138.336H480.686C480.846 139.664 481.286 140.624 482.006 141.216C482.742 141.808 483.67 142.104 484.79 142.104C486.054 142.104 487.214 141.832 488.27 141.288L488.51 143.328C487.23 143.936 485.902 144.24 484.526 144.24ZM486.47 136.632C486.47 135.88 486.254 135.264 485.822 134.784C485.39 134.304 484.742 134.064 483.878 134.064C482.262 134.064 481.246 134.92 480.83 136.632H486.47ZM501.79 144.24C500.558 144.24 499.486 143.968 498.574 143.424C497.678 142.864 496.99 142.12 496.51 141.192C496.046 140.248 495.814 139.208 495.814 138.072C495.814 136.936 496.046 135.904 496.51 134.976C496.99 134.032 497.678 133.288 498.574 132.744C499.486 132.184 500.558 131.904 501.79 131.904C503.006 131.904 504.062 132.184 504.958 132.744C505.87 133.288 506.566 134.032 507.046 134.976C507.526 135.904 507.766 136.936 507.766 138.072C507.766 139.208 507.526 140.248 507.046 141.192C506.566 142.12 505.87 142.864 504.958 143.424C504.062 143.968 503.006 144.24 501.79 144.24ZM501.79 142.104C502.878 142.104 503.718 141.744 504.31 141.024C504.902 140.304 505.198 139.32 505.198 138.072C505.198 136.824 504.902 135.84 504.31 135.12C503.718 134.4 502.878 134.04 501.79 134.04C500.702 134.04 499.862 134.4 499.27 135.12C498.678 135.84 498.382 136.824 498.382 138.072C498.382 139.32 498.678 140.304 499.27 141.024C499.862 141.744 500.702 142.104 501.79 142.104ZM519.901 132.144V144H517.621L517.477 142.968C516.709 143.816 515.701 144.24 514.453 144.24C512.885 144.24 511.717 143.776 510.949 142.848C510.181 141.92 509.797 140.576 509.797 138.816V132.144H512.293V138.48C512.293 139.696 512.493 140.6 512.893 141.192C513.309 141.784 513.973 142.08 514.885 142.08C515.413 142.08 515.893 141.984 516.325 141.792C516.757 141.584 517.117 141.288 517.405 140.904V132.144H519.901ZM522.784 132.144H524.992L525.16 133.8C526.216 132.536 527.32 131.904 528.472 131.904C528.648 131.904 528.832 131.92 529.024 131.952L528.808 134.568C528.552 134.504 528.264 134.472 527.944 134.472C527.4 134.472 526.888 134.6 526.408 134.856C525.928 135.112 525.584 135.408 525.376 135.744V144H522.784V132.144ZM541.381 144.24C540.069 144.24 538.949 143.976 538.021 143.448C537.093 142.904 536.389 142.168 535.909 141.24C535.445 140.312 535.213 139.272 535.213 138.12C535.213 136.936 535.445 135.88 535.909 134.952C536.373 134.008 537.077 133.264 538.021 132.72C538.965 132.176 540.125 131.904 541.501 131.904C542.733 131.904 543.805 132.144 544.717 132.624L544.429 134.736C543.533 134.288 542.589 134.064 541.597 134.064C540.381 134.064 539.437 134.424 538.765 135.144C538.109 135.848 537.781 136.824 537.781 138.072C537.781 139.288 538.109 140.264 538.765 141C539.437 141.736 540.373 142.104 541.573 142.104C542.581 142.104 543.541 141.856 544.453 141.36L544.741 143.424C544.357 143.664 543.861 143.856 543.253 144C542.645 144.16 542.021 144.24 541.381 144.24ZM551.923 144.24C550.691 144.24 549.619 143.968 548.707 143.424C547.811 142.864 547.123 142.12 546.643 141.192C546.179 140.248 545.947 139.208 545.947 138.072C545.947 136.936 546.179 135.904 546.643 134.976C547.123 134.032 547.811 133.288 548.707 132.744C549.619 132.184 550.691 131.904 551.923 131.904C553.139 131.904 554.195 132.184 555.091 132.744C556.003 133.288 556.699 134.032 557.179 134.976C557.659 135.904 557.899 136.936 557.899 138.072C557.899 139.208 557.659 140.248 557.179 141.192C556.699 142.12 556.003 142.864 555.091 143.424C554.195 143.968 553.139 144.24 551.923 144.24ZM551.923 142.104C553.011 142.104 553.851 141.744 554.443 141.024C555.035 140.304 555.331 139.32 555.331 138.072C555.331 136.824 555.035 135.84 554.443 135.12C553.851 134.4 553.011 134.04 551.923 134.04C550.835 134.04 549.995 134.4 549.403 135.12C548.811 135.84 548.515 136.824 548.515 138.072C548.515 139.32 548.811 140.304 549.403 141.024C549.995 141.744 550.835 142.104 551.923 142.104ZM570.681 126V144H568.377L568.233 142.872C567.353 143.784 566.201 144.24 564.777 144.24C563.721 144.24 562.777 143.968 561.945 143.424C561.113 142.88 560.465 142.136 560.001 141.192C559.553 140.248 559.329 139.216 559.329 138.096C559.329 136.992 559.545 135.968 559.977 135.024C560.425 134.08 561.057 133.328 561.873 132.768C562.705 132.208 563.673 131.928 564.777 131.928C566.185 131.928 567.321 132.352 568.185 133.2V126H570.681ZM565.185 142.104C566.113 142.104 566.873 141.76 567.465 141.072C568.073 140.368 568.377 139.376 568.377 138.096C568.377 136.864 568.073 135.888 567.465 135.168C566.857 134.432 566.097 134.064 565.185 134.064C564.177 134.064 563.377 134.44 562.785 135.192C562.193 135.928 561.897 136.896 561.897 138.096C561.897 139.248 562.193 140.208 562.785 140.976C563.377 141.728 564.177 142.104 565.185 142.104ZM579.214 144.24C577.854 144.24 576.686 143.96 575.71 143.4C574.75 142.84 574.022 142.088 573.526 141.144C573.046 140.2 572.806 139.144 572.806 137.976C572.806 136.872 573.03 135.864 573.478 134.952C573.942 134.024 574.606 133.288 575.47 132.744C576.35 132.2 577.39 131.928 578.59 131.928C580.158 131.928 581.406 132.392 582.334 133.32C583.262 134.232 583.726 135.456 583.726 136.992C583.726 137.408 583.678 137.856 583.582 138.336H575.374C575.534 139.664 575.974 140.624 576.694 141.216C577.43 141.808 578.358 142.104 579.478 142.104C580.742 142.104 581.902 141.832 582.958 141.288L583.198 143.328C581.918 143.936 580.59 144.24 579.214 144.24ZM581.158 136.632C581.158 135.88 580.942 135.264 580.51 134.784C580.078 134.304 579.43 134.064 578.566 134.064C576.95 134.064 575.934 134.92 575.518 136.632H581.158ZM596.909 144.24C595.549 144.24 594.381 143.96 593.405 143.4C592.445 142.84 591.717 142.088 591.221 141.144C590.741 140.2 590.501 139.144 590.501 137.976C590.501 136.872 590.725 135.864 591.173 134.952C591.637 134.024 592.301 133.288 593.165 132.744C594.045 132.2 595.085 131.928 596.285 131.928C597.853 131.928 599.101 132.392 600.029 133.32C600.957 134.232 601.421 135.456 601.421 136.992C601.421 137.408 601.373 137.856 601.277 138.336H593.069C593.229 139.664 593.669 140.624 594.389 141.216C595.125 141.808 596.053 142.104 597.173 142.104C598.437 142.104 599.597 141.832 600.653 141.288L600.893 143.328C599.613 143.936 598.285 144.24 596.909 144.24ZM598.853 136.632C598.853 135.88 598.637 135.264 598.205 134.784C597.773 134.304 597.125 134.064 596.261 134.064C594.645 134.064 593.629 134.92 593.213 136.632H598.853ZM602.136 132.144H604.776L607.92 141.072L611.04 132.144H613.68L609.168 144H606.696L602.136 132.144ZM620.337 144.24C619.105 144.24 618.033 143.968 617.121 143.424C616.225 142.864 615.537 142.12 615.057 141.192C614.593 140.248 614.361 139.208 614.361 138.072C614.361 136.936 614.593 135.904 615.057 134.976C615.537 134.032 616.225 133.288 617.121 132.744C618.033 132.184 619.105 131.904 620.337 131.904C621.553 131.904 622.609 132.184 623.505 132.744C624.417 133.288 625.113 134.032 625.593 134.976C626.073 135.904 626.313 136.936 626.313 138.072C626.313 139.208 626.073 140.248 625.593 141.192C625.113 142.12 624.417 142.864 623.505 143.424C622.609 143.968 621.553 144.24 620.337 144.24ZM620.337 142.104C621.425 142.104 622.265 141.744 622.857 141.024C623.449 140.304 623.745 139.32 623.745 138.072C623.745 136.824 623.449 135.84 622.857 135.12C622.265 134.4 621.425 134.04 620.337 134.04C619.249 134.04 618.409 134.4 617.817 135.12C617.225 135.84 616.929 136.824 616.929 138.072C616.929 139.32 617.225 140.304 617.817 141.024C618.409 141.744 619.249 142.104 620.337 142.104ZM631.511 144.24C630.471 144.24 629.695 143.96 629.183 143.4C628.687 142.84 628.439 142.128 628.439 141.264V126H630.959V140.04C630.959 140.712 630.999 141.2 631.079 141.504C631.159 141.792 631.311 141.984 631.535 142.08C631.759 142.16 632.135 142.2 632.663 142.2L632.351 144.24H631.511ZM632.957 132.144H635.597L638.741 141.072L641.861 132.144H644.501L639.989 144H637.517L632.957 132.144ZM651.589 144.24C650.229 144.24 649.061 143.96 648.085 143.4C647.125 142.84 646.397 142.088 645.901 141.144C645.421 140.2 645.181 139.144 645.181 137.976C645.181 136.872 645.405 135.864 645.853 134.952C646.317 134.024 646.981 133.288 647.845 132.744C648.725 132.2 649.765 131.928 650.965 131.928C652.533 131.928 653.781 132.392 654.709 133.32C655.637 134.232 656.101 135.456 656.101 136.992C656.101 137.408 656.053 137.856 655.957 138.336H647.749C647.909 139.664 648.349 140.624 649.069 141.216C649.805 141.808 650.733 142.104 651.853 142.104C653.117 142.104 654.277 141.832 655.333 141.288L655.573 143.328C654.293 143.936 652.965 144.24 651.589 144.24ZM653.533 136.632C653.533 135.88 653.317 135.264 652.885 134.784C652.453 134.304 651.805 134.064 650.941 134.064C649.325 134.064 648.309 134.92 647.893 136.632H653.533ZM661.566 144.24C660.062 144.24 658.718 143.92 657.534 143.28L657.798 140.976C658.262 141.312 658.806 141.6 659.43 141.84C660.054 142.064 660.734 142.176 661.47 142.176C662.158 142.176 662.686 142.064 663.054 141.84C663.422 141.616 663.606 141.28 663.606 140.832C663.606 140.336 663.406 139.96 663.006 139.704C662.622 139.432 662.054 139.176 661.302 138.936C660.534 138.68 659.902 138.432 659.406 138.192C658.91 137.936 658.502 137.584 658.182 137.136C657.862 136.688 657.702 136.112 657.702 135.408C657.702 134.4 658.078 133.568 658.83 132.912C659.598 132.24 660.702 131.904 662.142 131.904C663.39 131.904 664.526 132.184 665.55 132.744L665.286 134.952C664.79 134.584 664.294 134.304 663.798 134.112C663.318 133.904 662.782 133.8 662.19 133.8C661.566 133.8 661.078 133.92 660.726 134.16C660.374 134.4 660.198 134.752 660.198 135.216C660.198 135.552 660.286 135.824 660.462 136.032C660.638 136.24 660.894 136.416 661.23 136.56C661.566 136.704 662.094 136.904 662.814 137.16C663.838 137.512 664.646 137.944 665.238 138.456C665.846 138.968 666.15 139.72 666.15 140.712C666.15 141.736 665.774 142.584 665.022 143.256C664.286 143.912 663.134 144.24 661.566 144.24ZM679.316 144.24C677.956 144.24 676.788 143.96 675.812 143.4C674.852 142.84 674.124 142.088 673.628 141.144C673.148 140.2 672.908 139.144 672.908 137.976C672.908 136.872 673.132 135.864 673.58 134.952C674.044 134.024 674.708 133.288 675.572 132.744C676.452 132.2 677.492 131.928 678.692 131.928C680.26 131.928 681.508 132.392 682.436 133.32C683.364 134.232 683.828 135.456 683.828 136.992C683.828 137.408 683.78 137.856 683.684 138.336H675.476C675.636 139.664 676.076 140.624 676.796 141.216C677.532 141.808 678.46 142.104 679.58 142.104C680.844 142.104 682.004 141.832 683.06 141.288L683.3 143.328C682.02 143.936 680.692 144.24 679.316 144.24ZM681.26 136.632C681.26 135.88 681.044 135.264 680.612 134.784C680.18 134.304 679.532 134.064 678.668 134.064C677.052 134.064 676.036 134.92 675.62 136.632H681.26ZM684.542 132.144H687.182L690.326 141.072L693.446 132.144H696.086L691.574 144H689.102L684.542 132.144ZM703.175 144.24C701.815 144.24 700.647 143.96 699.671 143.4C698.711 142.84 697.983 142.088 697.487 141.144C697.007 140.2 696.767 139.144 696.767 137.976C696.767 136.872 696.991 135.864 697.439 134.952C697.903 134.024 698.567 133.288 699.431 132.744C700.311 132.2 701.351 131.928 702.551 131.928C704.119 131.928 705.367 132.392 706.295 133.32C707.223 134.232 707.687 135.456 707.687 136.992C707.687 137.408 707.639 137.856 707.543 138.336H699.335C699.495 139.664 699.935 140.624 700.655 141.216C701.391 141.808 702.319 142.104 703.439 142.104C704.703 142.104 705.863 141.832 706.919 141.288L707.159 143.328C705.879 143.936 704.551 144.24 703.175 144.24ZM705.119 136.632C705.119 135.88 704.903 135.264 704.471 134.784C704.039 134.304 703.391 134.064 702.527 134.064C700.911 134.064 699.895 134.92 699.479 136.632H705.119ZM709.792 132.144H712L712.168 133.8C713.224 132.536 714.328 131.904 715.48 131.904C715.656 131.904 715.84 131.92 716.032 131.952L715.816 134.568C715.56 134.504 715.272 134.472 714.952 134.472C714.408 134.472 713.896 134.6 713.416 134.856C712.936 135.112 712.592 135.408 712.384 135.744V144H709.792V132.144ZM721.126 143.352L716.182 132.144H718.99L722.398 140.448L725.638 132.144H728.422L721.078 149.808H718.438L721.126 143.352ZM745.994 126V144H743.69L743.546 142.872C742.666 143.784 741.514 144.24 740.09 144.24C739.034 144.24 738.09 143.968 737.258 143.424C736.426 142.88 735.778 142.136 735.314 141.192C734.866 140.248 734.642 139.216 734.642 138.096C734.642 136.992 734.858 135.968 735.29 135.024C735.738 134.08 736.37 133.328 737.186 132.768C738.018 132.208 738.986 131.928 740.09 131.928C741.498 131.928 742.634 132.352 743.498 133.2V126H745.994ZM740.498 142.104C741.426 142.104 742.186 141.76 742.778 141.072C743.386 140.368 743.69 139.376 743.69 138.096C743.69 136.864 743.386 135.888 742.778 135.168C742.17 134.432 741.41 134.064 740.498 134.064C739.49 134.064 738.69 134.44 738.098 135.192C737.506 135.928 737.21 136.896 737.21 138.096C737.21 139.248 737.506 140.208 738.098 140.976C738.69 141.728 739.49 142.104 740.498 142.104ZM751.502 144.24C750.462 144.24 749.606 143.92 748.934 143.28C748.278 142.64 747.95 141.8 747.95 140.76C747.95 139.72 748.31 138.888 749.03 138.264C749.766 137.64 750.654 137.2 751.694 136.944C752.734 136.672 753.79 136.528 754.862 136.512C754.846 135.6 754.646 134.976 754.262 134.64C753.894 134.288 753.294 134.112 752.462 134.112C751.95 134.112 751.438 134.192 750.926 134.352C750.43 134.496 749.878 134.752 749.27 135.12L748.982 133.08C749.574 132.712 750.222 132.432 750.926 132.24C751.646 132.032 752.382 131.928 753.134 131.928C754.606 131.928 755.678 132.328 756.35 133.128C757.022 133.928 757.358 135.288 757.358 137.208V139.968C757.358 140.592 757.382 141.056 757.43 141.36C757.494 141.664 757.606 141.88 757.766 142.008C757.942 142.136 758.214 142.2 758.582 142.2H758.87L758.582 144.24H758.03C757.198 144.24 756.566 144.112 756.134 143.856C755.718 143.6 755.382 143.2 755.126 142.656C754.694 143.152 754.166 143.544 753.542 143.832C752.918 144.104 752.238 144.24 751.502 144.24ZM752.27 142.272C752.734 142.272 753.198 142.16 753.662 141.936C754.142 141.712 754.542 141.4 754.862 141V138.216C751.982 138.312 750.542 139.12 750.542 140.64C750.542 141.728 751.118 142.272 752.27 142.272ZM763.688 143.352L758.744 132.144H761.552L764.96 140.448L768.2 132.144H770.984L763.64 149.808H761L763.688 143.352Z" fill="black"/>
<path d="M29.6633 32.2869C26.5547 32.2869 24.2068 32.9175 22.6195 34.1787C21.0983 35.4399 20.3377 37.4975 20.3377 40.3518C20.3377 41.7457 20.47 44.0357 20.7345 47.2218C20.9991 50.4079 21.1314 52.6315 21.1314 53.8927C21.1314 56.8797 20.5361 59.3024 19.3456 61.161C18.1551 62.9532 16.4024 64.4135 14.0876 65.5419C16.4024 66.6039 18.1551 68.0642 19.3456 69.9228C20.5361 71.7813 21.1314 74.2041 21.1314 77.1911C21.1314 78.4522 20.9991 80.6759 20.7345 83.862C20.47 87.0481 20.3377 89.3381 20.3377 90.732C20.3377 93.5862 21.0983 95.6439 22.6195 96.9051C24.2068 98.1662 26.5547 98.7968 29.6633 98.7968H32.3419V109.649H28.6712C22.5864 109.649 18.0559 108.222 15.0797 105.368C12.1696 102.514 10.7145 98.6309 10.7145 93.719C10.7145 92.4578 10.8468 90.3006 11.1113 87.2472C11.3759 84.0611 11.5082 81.7047 11.5082 80.178C11.5082 76.4609 10.8798 73.7727 9.62321 72.1132C8.36657 70.3874 6.15092 69.5245 2.97626 69.5245V61.5593C6.15092 61.5593 8.36657 60.7295 9.62321 59.0701C10.8798 57.3443 11.5082 54.6229 11.5082 50.9057C11.5082 49.3791 11.3759 47.0227 11.1113 43.8366C10.8468 40.7832 10.7145 38.626 10.7145 37.3648C10.7145 32.4529 12.1696 28.5698 15.0797 25.7156C18.0559 22.8614 22.5864 21.4343 28.6712 21.4343H32.3419V32.2869H29.6633ZM122.395 50.9057C122.395 54.6229 123.023 57.3443 124.28 59.0701C125.537 60.7295 127.752 61.5593 130.927 61.5593V69.5245C127.752 69.5245 125.537 70.3874 124.28 72.1132C123.023 73.7727 122.395 76.4609 122.395 80.178C122.395 81.7047 122.527 84.0611 122.792 87.2472C123.056 90.3006 123.189 92.4578 123.189 93.719C123.189 98.6309 121.701 102.514 118.724 105.368C115.814 108.222 111.317 109.649 105.232 109.649H101.561V98.7968H104.24C107.348 98.7968 109.663 98.1662 111.185 96.9051C112.772 95.6439 113.566 93.5862 113.566 90.732C113.566 89.3381 113.433 87.0481 113.169 83.862C112.904 80.6759 112.772 78.4522 112.772 77.1911C112.772 71.549 115.12 67.666 119.816 65.5419C115.12 63.4178 112.772 59.5348 112.772 53.8927C112.772 52.6315 112.904 50.4079 113.169 47.2218C113.433 44.0357 113.566 41.7457 113.566 40.3518C113.566 37.4975 112.772 35.4399 111.185 34.1787C109.663 32.9175 107.348 32.2869 104.24 32.2869H101.561V21.4343H105.232C111.317 21.4343 115.814 22.8614 118.724 25.7156C121.701 28.5698 123.189 32.4529 123.189 37.3648C123.189 38.626 123.056 40.7832 122.792 43.8366C122.527 47.0227 122.395 49.3791 122.395 50.9057Z" fill="black"/>
<path d="M106.251 68.7626L95.3143 64.9213C90.9498 63.3878 86.153 63.6951 82.018 65.7725C77.8833 67.8502 74.7634 71.52 73.371 75.9455L70.5095 85.0405L67.6921 87.1611V68.1673C67.6886 65.6356 68.9501 63.2706 71.0507 61.8694L69.5915 59.6737C66.7592 61.5645 65.0589 64.753 65.0627 68.1673V70.7809L63.3627 69.0748L61.5039 70.9406L65.0627 74.5125V103.499L62.4333 102.179V99.4648C62.4326 92.8274 59.2532 86.5942 53.888 82.7128C48.5221 78.8325 41.6251 77.7764 35.3509 79.8762L29.1513 81.9502C28.6114 82.1286 28.2468 82.6337 28.2468 83.2037C28.2468 83.7742 28.6114 84.2793 29.1513 84.4577L30.559 84.9285C37.3071 87.1802 43.6037 90.6169 49.1549 95.078L60.2969 104.024C60.372 104.077 60.4536 104.121 60.5391 104.156L60.5308 104.173L65.0627 106.449V109.592H67.6921V90.4596L72.4244 86.8967L72.4103 86.8787C72.464 86.8472 72.5161 86.8123 72.5657 86.7743C80.8905 78.446 91.7328 73.1234 103.394 71.641L105.981 71.3171C106.586 71.2403 107.059 70.756 107.124 70.1468C107.189 69.538 106.827 68.9648 106.251 68.7626Z" fill="#3D7606"/>
<path d="M78.8254 41.5977L78.2095 31.6612C78.1702 31.0362 77.699 30.5247 77.0807 30.4364C76.4644 30.3539 75.8733 30.7128 75.6604 31.2997L71.4082 43.2433C69.8181 47.7048 69.0055 52.4082 69.0066 57.1469V60.7714C69.0066 61.3048 69.3269 61.7861 69.8181 61.9904C70.309 62.194 70.8746 62.0813 71.2508 61.7045C76.5312 56.4026 79.2905 49.0804 78.8254 41.5977Z" fill="#5FA819"/>
<path d="M47.8835 47.9143L39.1845 45.012C38.7353 44.8609 38.2396 44.9646 37.8872 45.283C37.5355 45.6021 37.3815 46.0858 37.4849 46.5504L38.931 53.0976C41.2465 63.7801 50.6923 71.3807 61.5852 71.3274H62.4333C63.1595 71.3274 63.7478 70.7366 63.7478 70.0078C63.7565 59.9814 57.3627 51.0782 47.8835 47.9143Z" fill="#5FA819"/>
<path d="M54.3475 65.5218C49.3096 62.4097 45.1801 58.0185 42.375 52.7916L38.2289 45.0601C37.6554 45.3083 37.3416 45.933 37.4849 46.5432L38.931 53.0903C41.2438 63.7763 50.6906 71.38 61.5852 71.3274H62.4333C62.7323 71.3222 63.02 71.2133 63.248 71.0187L54.3475 65.5218Z" fill="#589C17"/>
<path d="M82.4396 74.8893C79.6697 76.8744 77.4803 79.5675 76.0979 82.689L75.4902 84.0615C83.3821 77.272 93.0828 72.9526 103.394 71.6386L105.899 71.3274H93.5224C89.5482 71.326 85.6735 72.572 82.4396 74.8893Z" fill="#589C17"/>
<path d="M61.8074 104.815L61.7813 104.671C59.1667 90.2363 46.0788 80.139 31.5084 81.3155L30.8967 81.3646L29.1513 81.9488C28.6114 82.1272 28.2468 82.6323 28.2468 83.2027C28.2468 83.7728 28.6114 84.2779 29.1513 84.4556L30.559 84.9271C37.3071 87.1798 43.6037 90.6162 49.1549 95.078L60.2969 104.024C60.372 104.077 60.4537 104.121 60.5391 104.156L60.5308 104.173L61.8074 104.815Z" fill="#589C17"/>
</svg>
