<svg width="131" height="152" viewBox="0 0 131 152" fill="none" xmlns="http://www.w3.org/2000/svg">
<path fill-rule="evenodd" clip-rule="evenodd" d="M65.0351 0L130.07 37.9714V113.914L65.0351 151.886L0 113.914V37.9714L65.0351 0Z" fill="#589C17"/>
<path d="M61.1176 149.598C61.3571 146.699 62.118 143.738 62.9029 140.984L63.0092 140.637C63.3734 139.333 63.8464 138.025 64.3269 136.633C65.966 132.043 67.4697 127.381 65.7054 123.17C62.1643 114.781 56.7882 109.379 55.6095 108.258C52.6185 108.71 49.5112 108.854 46.6176 108.211C42.2481 107.16 38.7108 105.125 35.2139 102.333C34.5323 101.787 31.8423 99.614 32.1041 98.6778C32.5025 97.2543 34.5714 95.6275 36.2876 94.667C45.3997 89.8761 57.7873 95.9638 59.9145 106.057C57.2814 103.224 52.3226 100.884 46.1623 101.211C53.7833 103.058 56.9083 106.258 57.8088 107.387C62.4261 112.481 66.0077 117.995 67.691 122.548C68.2235 120.11 68.9722 117.545 69.7512 114.867C72.2034 106.419 74.9553 97.5562 71.37 90.5846C66.4592 81.0232 61.0387 77.093 60.9111 77.0163C57.9315 77.4613 54.8355 77.5764 51.9508 76.9229C47.5889 75.8525 44.0528 73.7959 40.5686 70.9898C39.8907 70.4387 37.2184 68.2542 37.4891 67.3129C37.8913 65.8971 39.9716 64.2792 41.6765 63.3303C50.8189 58.5828 63.1723 64.7282 65.2553 74.8344C62.6297 71.9862 57.6937 69.6214 51.5246 69.9206C56.663 71.1907 59.7424 73.063 61.484 74.4929V74.4967C61.8469 74.7986 62.1606 75.0812 62.4186 75.3344C64.4749 77.2311 72.7194 85.0788 73.9815 91.9352C75.5511 80.3019 75.484 69.6623 73.7868 60.2762C73.2367 57.2962 72.5639 54.324 71.709 50.9194C71.6937 50.8644 71.6723 50.8209 71.6546 50.7698C67.6885 49.8745 63.7566 48.5201 60.428 46.3255C55.2756 42.793 51.6725 38.3883 48.4893 33.0218C47.8684 31.9693 45.444 27.828 46.2382 26.7346C47.4485 25.0924 50.9276 24.0091 53.605 23.6088C67.7644 21.9334 80.8842 35.998 78.7317 50.1546C76.6943 45.1667 71.4092 39.657 63.2469 37.0185C69.8182 41.5447 72.9218 45.8164 74.3521 48.5278C74.3521 48.5278 76.4363 52.3288 78.3827 59.2261C81.122 68.9525 81.3762 78.9423 80.9664 87.0368C84.4316 78.8618 89.9115 73.8458 89.9115 73.8458V73.8496C91.3393 72.4032 95.4112 69.5656 101.721 68.0028C95.5667 67.7009 89.7648 70.431 87.133 73.2766C89.2109 63.1755 101.572 57.0263 110.708 61.7725C112.425 62.7228 114.512 64.3419 114.914 65.7577C115.179 66.7029 112.504 68.8809 111.821 69.4321C108.332 72.2381 104.81 74.2946 100.446 75.3664C97.8676 75.9535 95.1144 75.9113 92.4232 75.5851C91.5316 76.1453 81.4912 86.3641 79.5866 100.255C78.5825 105.836 77.0307 111.197 75.5422 116.371C74.3407 120.554 73.1228 124.809 72.1705 129.204C79.2742 114.685 89.0844 110.353 89.0844 110.353C89.0844 110.353 94.023 108.247 98.2724 107.731C92.188 106.681 87.0028 108.436 84.051 110.939C87.3227 101.161 100.329 96.5611 108.837 102.391C110.426 103.542 112.295 105.397 112.525 106.859C112.685 107.822 109.768 109.661 109.027 110.129C105.232 112.488 101.488 114.103 97.0317 114.638C94.1445 114.922 91.1497 114.457 88.2838 113.684C87.9639 113.801 87.6351 113.959 87.3139 114.17C84.9426 115.706 82.8356 117.118 81.0005 118.957C75.909 124.108 73.5161 131.277 71.198 138.223C71.198 138.223 67.9831 148.164 71.6238 148.038L65.0348 151.885L61.1176 149.598V149.598Z" fill="white"/>
</svg>
